G75*
%MOIN*%
%OFA0B0*%
%FSLAX24Y24*%
%IPPOS*%
%LPD*%
%AMOC8*
5,1,8,0,0,1.08239X$1,22.5*
%
%ADD10C,0.0520*%
%ADD11R,0.0800X0.0260*%
%ADD12R,0.0260X0.0800*%
%ADD13OC8,0.0600*%
%ADD14R,0.0394X0.0433*%
%ADD15OC8,0.0740*%
%ADD16C,0.0945*%
%ADD17R,0.0413X0.0425*%
%ADD18R,0.0425X0.0413*%
%ADD19C,0.0860*%
%ADD20R,0.0860X0.0860*%
%ADD21C,0.0186*%
%ADD22C,0.0160*%
%ADD23C,0.0357*%
%ADD24C,0.0396*%
%ADD25C,0.0240*%
%ADD26C,0.0436*%
%ADD27C,0.0400*%
%ADD28C,0.0500*%
%ADD29C,0.0560*%
%ADD30C,0.0320*%
%ADD31C,0.0660*%
%ADD32C,0.1660*%
D10*
X009040Y054421D02*
X009560Y054421D01*
X009560Y055421D02*
X009040Y055421D01*
X009040Y056421D02*
X009560Y056421D01*
X009560Y057421D02*
X009040Y057421D01*
X009040Y058421D02*
X009560Y058421D01*
X009560Y059421D02*
X009040Y059421D01*
X009040Y060421D02*
X009560Y060421D01*
X009560Y061421D02*
X009040Y061421D01*
X009040Y062421D02*
X009560Y062421D01*
X009524Y071744D02*
X009004Y071744D01*
X009004Y072744D02*
X009524Y072744D01*
X009524Y073744D02*
X009004Y073744D01*
X009004Y074744D02*
X009524Y074744D01*
X009524Y075744D02*
X009004Y075744D01*
X009004Y076744D02*
X009524Y076744D01*
X009524Y077744D02*
X009004Y077744D01*
X009004Y078744D02*
X009524Y078744D01*
X009524Y079744D02*
X009004Y079744D01*
X038831Y080137D02*
X039351Y080137D01*
X039351Y079137D02*
X038831Y079137D01*
X038831Y078137D02*
X039351Y078137D01*
X039351Y077137D02*
X038831Y077137D01*
X038831Y076137D02*
X039351Y076137D01*
X039351Y075137D02*
X038831Y075137D01*
X038831Y081137D02*
X039351Y081137D01*
X039351Y082137D02*
X038831Y082137D01*
X038831Y083137D02*
X039351Y083137D01*
X039410Y065815D02*
X038890Y065815D01*
X038890Y064815D02*
X039410Y064815D01*
X039410Y063815D02*
X038890Y063815D01*
X038890Y062815D02*
X039410Y062815D01*
X039410Y061815D02*
X038890Y061815D01*
X038890Y060815D02*
X039410Y060815D01*
X039410Y059815D02*
X038890Y059815D01*
X038890Y058815D02*
X039410Y058815D01*
X039410Y057815D02*
X038890Y057815D01*
D11*
X033002Y060490D03*
X033002Y060990D03*
X033002Y061490D03*
X033002Y061990D03*
X033002Y062490D03*
X033002Y062990D03*
X033002Y063490D03*
X033002Y063990D03*
X030582Y063990D03*
X030582Y063490D03*
X030582Y062990D03*
X030582Y062490D03*
X030582Y061990D03*
X030582Y061490D03*
X030582Y060990D03*
X030582Y060490D03*
X030885Y076868D03*
X030885Y077368D03*
X030885Y077868D03*
X030885Y078368D03*
X030885Y078868D03*
X030885Y079368D03*
X030885Y079868D03*
X030885Y080368D03*
X033305Y080368D03*
X033305Y079868D03*
X033305Y079368D03*
X033305Y078868D03*
X033305Y078368D03*
X033305Y077868D03*
X033305Y077368D03*
X033305Y076868D03*
X016648Y077151D03*
X016648Y077651D03*
X016648Y078151D03*
X016648Y078651D03*
X016648Y079151D03*
X016648Y079651D03*
X016648Y080151D03*
X016648Y080651D03*
X014228Y080651D03*
X014228Y080151D03*
X014228Y079651D03*
X014228Y079151D03*
X014228Y078651D03*
X014228Y078151D03*
X014228Y077651D03*
X014228Y077151D03*
X014472Y065876D03*
X014472Y065376D03*
X014472Y064876D03*
X014472Y064376D03*
X014472Y063876D03*
X014472Y063376D03*
X014472Y062876D03*
X014472Y062376D03*
X016892Y062376D03*
X016892Y062876D03*
X016892Y063376D03*
X016892Y063876D03*
X016892Y064376D03*
X016892Y064876D03*
X016892Y065376D03*
X016892Y065876D03*
D12*
X022113Y070723D03*
X022613Y070723D03*
X023113Y070723D03*
X023613Y070723D03*
X024113Y070723D03*
X024613Y070723D03*
X025113Y070723D03*
X025613Y070723D03*
X025613Y073143D03*
X025113Y073143D03*
X024613Y073143D03*
X024113Y073143D03*
X023613Y073143D03*
X023113Y073143D03*
X022613Y073143D03*
X022113Y073143D03*
D13*
X007099Y072748D03*
X007099Y073748D03*
X007099Y074748D03*
X007099Y075748D03*
X007099Y076748D03*
X007099Y077748D03*
X007099Y078748D03*
X007099Y079748D03*
X007099Y080748D03*
X007099Y081748D03*
X007099Y082748D03*
X007099Y083748D03*
X007099Y084748D03*
X006099Y084748D03*
X006099Y083748D03*
X006099Y082748D03*
X006099Y081748D03*
X006099Y080748D03*
X006099Y079748D03*
X006099Y078748D03*
X006099Y077748D03*
X006099Y076748D03*
X006099Y075748D03*
X006099Y074748D03*
X006099Y073748D03*
X006099Y072748D03*
X006079Y067425D03*
X006079Y066425D03*
X006079Y065425D03*
X006079Y064425D03*
X006079Y063425D03*
X006079Y062425D03*
X006079Y061425D03*
X006079Y060425D03*
X006079Y059425D03*
X006079Y058425D03*
X006079Y057425D03*
X006079Y056425D03*
X006079Y055425D03*
X007079Y055425D03*
X007079Y056425D03*
X007079Y057425D03*
X007079Y058425D03*
X007079Y059425D03*
X007079Y060425D03*
X007079Y061425D03*
X007079Y062425D03*
X007079Y063425D03*
X007079Y064425D03*
X007079Y065425D03*
X007079Y066425D03*
X007079Y067425D03*
X041363Y067807D03*
X041363Y066807D03*
X041363Y065807D03*
X041363Y064807D03*
X041363Y063807D03*
X041363Y062807D03*
X041363Y061807D03*
X041363Y060807D03*
X041363Y059807D03*
X041363Y058807D03*
X042363Y058807D03*
X042363Y059807D03*
X042363Y060807D03*
X042363Y061807D03*
X042363Y062807D03*
X042363Y063807D03*
X042363Y064807D03*
X042363Y065807D03*
X042363Y066807D03*
X042363Y067807D03*
X042371Y073141D03*
X042371Y074141D03*
X042371Y075141D03*
X042371Y076141D03*
X041371Y076141D03*
X041371Y075141D03*
X041371Y074141D03*
X041371Y073141D03*
X041371Y077141D03*
X041371Y078141D03*
X041371Y079141D03*
X041371Y080141D03*
X041371Y081141D03*
X041371Y082141D03*
X041371Y083141D03*
X041371Y084141D03*
X041371Y085141D03*
X042371Y085141D03*
X042371Y084141D03*
X042371Y083141D03*
X042371Y082141D03*
X042371Y081141D03*
X042371Y080141D03*
X042371Y079141D03*
X042371Y078141D03*
X042371Y077141D03*
X042363Y057807D03*
X042363Y056807D03*
X042363Y055807D03*
X041363Y055807D03*
X041363Y056807D03*
X041363Y057807D03*
D14*
X038827Y067212D03*
X038158Y067212D03*
X038142Y068315D03*
X038812Y068315D03*
D15*
X025650Y084271D03*
X025650Y085271D03*
X024650Y085271D03*
X024650Y084271D03*
X023650Y084271D03*
X023650Y085271D03*
X022650Y085271D03*
X022650Y084271D03*
X021650Y084271D03*
X021650Y085271D03*
X022138Y056964D03*
X021138Y056964D03*
X021138Y055964D03*
X022138Y055964D03*
X023138Y055964D03*
X023138Y056964D03*
X024138Y056964D03*
X024138Y055964D03*
X025138Y055964D03*
X025138Y056964D03*
D16*
X026119Y053216D03*
X024119Y053216D03*
X022111Y053216D03*
X020115Y053228D03*
X020658Y087665D03*
X022658Y087665D03*
X024666Y087665D03*
X026662Y087653D03*
D17*
X029408Y082370D03*
X030097Y082370D03*
X031455Y065323D03*
X032144Y065323D03*
X021672Y064496D03*
X020983Y064496D03*
X018247Y061740D03*
X017558Y061740D03*
X014743Y081504D03*
X014054Y081504D03*
D18*
X021445Y070943D03*
X021445Y070254D03*
D19*
X016879Y084260D03*
X016879Y085244D03*
X009595Y085244D03*
X009595Y084260D03*
D20*
X009595Y088472D03*
X009595Y089456D03*
X016879Y089456D03*
X016879Y088472D03*
D21*
X011904Y088512D02*
X011904Y088038D01*
X011904Y088512D02*
X012038Y088512D01*
X012038Y088038D01*
X011904Y088038D01*
X011904Y088223D02*
X012038Y088223D01*
X012038Y088408D02*
X011904Y088408D01*
X011404Y088512D02*
X011404Y088038D01*
X011404Y088512D02*
X011538Y088512D01*
X011538Y088038D01*
X011404Y088038D01*
X011404Y088223D02*
X011538Y088223D01*
X011538Y088408D02*
X011404Y088408D01*
D22*
X010579Y083118D02*
X010579Y081346D01*
X010422Y080567D02*
X009170Y081819D01*
X008571Y081819D01*
X008532Y080756D02*
X009516Y080756D01*
X010107Y080165D01*
X010107Y079338D01*
X013375Y076071D01*
X015107Y076071D01*
X016091Y075086D01*
X016091Y074574D01*
X017154Y073511D01*
X017154Y072330D01*
X021760Y067724D01*
X021957Y067724D01*
X022351Y067330D01*
X022351Y066464D01*
X021841Y065954D01*
X021487Y065954D01*
X021692Y066454D02*
X021711Y066454D01*
X022075Y066819D01*
X022075Y067173D01*
X021839Y067409D01*
X021642Y067409D01*
X016839Y072212D01*
X016839Y073393D01*
X015776Y074456D01*
X015776Y074968D01*
X014989Y075756D01*
X013257Y075756D01*
X009268Y079744D01*
X009264Y079744D01*
X009264Y078744D02*
X009835Y078744D01*
X013138Y075441D01*
X014871Y075441D01*
X015461Y074850D01*
X015461Y074338D01*
X016524Y073275D01*
X016524Y072094D01*
X021485Y067134D01*
X021485Y066976D01*
X022666Y066346D02*
X021774Y065454D01*
X021695Y065454D01*
X022666Y066346D02*
X022666Y067448D01*
X022075Y068039D01*
X021879Y068039D01*
X017469Y072448D01*
X017469Y073669D01*
X016406Y074732D01*
X016406Y075204D01*
X015225Y076385D01*
X013493Y076385D01*
X010422Y079456D01*
X010422Y080567D01*
X009418Y077744D02*
X009264Y077744D01*
X009418Y077744D02*
X012784Y074378D01*
X013375Y074378D01*
X013453Y074456D01*
X013453Y075008D01*
X013965Y074732D02*
X013965Y074220D01*
X013808Y074063D01*
X012469Y074063D01*
X009792Y076740D01*
X009268Y076740D01*
X009264Y076744D01*
X009276Y076744D01*
X009264Y075744D02*
X010146Y075744D01*
X012142Y073748D01*
X014280Y073748D01*
X014461Y073929D01*
X014461Y075011D01*
X014949Y074732D02*
X014949Y073551D01*
X014831Y073433D01*
X011390Y073433D01*
X010079Y074744D01*
X009264Y074744D01*
X009268Y073748D02*
X009264Y073744D01*
X009268Y073748D02*
X009634Y073748D01*
X011406Y071976D01*
X014162Y071976D01*
X014949Y071189D01*
X014949Y071031D01*
X014461Y071165D02*
X013965Y071661D01*
X011170Y071661D01*
X010087Y072744D01*
X009264Y072744D01*
X010264Y071031D02*
X009320Y070086D01*
X009320Y064417D01*
X009753Y063866D02*
X009320Y063433D01*
X009753Y063866D02*
X009753Y070047D01*
X010422Y070716D01*
X013414Y070716D01*
X013453Y070756D01*
X012981Y071031D02*
X013296Y071346D01*
X013768Y071346D01*
X013965Y071149D01*
X013965Y071031D01*
X014461Y071165D02*
X014461Y070756D01*
X012981Y071031D02*
X010264Y071031D01*
X014472Y065376D02*
X014458Y065362D01*
X015501Y065362D01*
X015264Y064850D02*
X014446Y064850D01*
X014472Y064876D01*
X014470Y064378D02*
X015501Y064378D01*
X015264Y063866D02*
X014634Y063866D01*
X014625Y063876D01*
X014472Y063876D01*
X014472Y064376D02*
X014470Y064378D01*
X014472Y063376D02*
X014450Y063354D01*
X015501Y063354D01*
X015264Y062882D02*
X014466Y062882D01*
X014472Y062876D01*
X014472Y062376D02*
X014466Y062370D01*
X015501Y062370D01*
X016012Y062606D02*
X016282Y062876D01*
X016892Y062876D01*
X016012Y062606D02*
X016012Y061937D01*
X015934Y061858D01*
X015816Y061858D01*
X014936Y060073D02*
X014936Y059600D01*
X014398Y059063D01*
X010107Y059063D01*
X009749Y059421D01*
X009300Y059421D01*
X009300Y060421D02*
X010087Y060421D01*
X010186Y060323D01*
X010186Y059496D01*
X010304Y059378D01*
X014241Y059378D01*
X014436Y059573D01*
X014436Y060399D01*
X013936Y060017D02*
X013611Y059693D01*
X010540Y059693D01*
X010461Y059771D01*
X010461Y060913D01*
X009949Y061425D01*
X009304Y061425D01*
X009300Y061421D01*
X009363Y061421D01*
X009418Y060421D02*
X009300Y060421D01*
X009300Y058421D02*
X009410Y058421D01*
X010540Y057291D01*
X014123Y057291D01*
X014936Y056478D01*
X014936Y055978D01*
X014438Y056267D02*
X014438Y056464D01*
X013926Y056976D01*
X010107Y056976D01*
X009662Y057421D01*
X009300Y057421D01*
X009304Y056425D02*
X009300Y056421D01*
X009304Y056425D02*
X009871Y056425D01*
X010107Y056661D01*
X013729Y056661D01*
X013936Y056454D01*
X013936Y055982D01*
X013436Y056277D02*
X010255Y056277D01*
X009390Y055421D01*
X009300Y055421D01*
X010894Y060008D02*
X010776Y060126D01*
X010737Y061661D01*
X009977Y062421D01*
X009300Y062421D01*
X009386Y062421D01*
X010894Y060008D02*
X013296Y060008D01*
X013436Y060147D01*
X013436Y060399D01*
X017627Y053551D02*
X017705Y053551D01*
X026839Y068945D02*
X026879Y068984D01*
X027823Y068984D01*
X030776Y071937D01*
X030776Y072960D01*
X030934Y073118D01*
X031603Y073118D01*
X031760Y072960D01*
X031288Y072685D02*
X031288Y071937D01*
X027902Y068551D01*
X027627Y068551D01*
X025611Y072429D02*
X025611Y073145D01*
X025613Y073143D01*
X025138Y073168D02*
X025138Y072193D01*
X024627Y072429D02*
X024627Y073157D01*
X024613Y073143D01*
X024115Y073145D02*
X024115Y072193D01*
X023603Y072429D02*
X023603Y073153D01*
X023613Y073143D01*
X024113Y073143D02*
X024115Y073145D01*
X025113Y073143D02*
X025138Y073168D01*
X023113Y073143D02*
X023091Y073164D01*
X023091Y072193D01*
X022619Y072429D02*
X022619Y073149D01*
X022613Y073143D01*
X022113Y073143D02*
X022107Y073149D01*
X022107Y072193D01*
X017430Y076622D02*
X017430Y077409D01*
X017194Y077645D01*
X016654Y077645D01*
X016648Y077651D01*
X017430Y076622D02*
X017036Y076228D01*
X016367Y076228D01*
X016524Y075716D02*
X017312Y075716D01*
X015186Y077645D02*
X014222Y077645D01*
X014228Y077651D01*
X014228Y077151D02*
X014210Y077134D01*
X014949Y077134D01*
X014949Y078157D02*
X014222Y078157D01*
X014228Y078151D01*
X014228Y078651D02*
X014210Y078669D01*
X015186Y078669D01*
X014949Y079181D02*
X014198Y079181D01*
X014228Y079151D01*
X014228Y079651D02*
X014226Y079653D01*
X015186Y079653D01*
X014938Y080161D02*
X014230Y080161D01*
X014228Y080151D01*
X030885Y079868D02*
X031345Y079868D01*
X031957Y080480D01*
X031957Y080795D01*
X032347Y080346D02*
X033091Y080346D01*
X033305Y080368D01*
X033305Y079868D02*
X033102Y079834D01*
X032071Y079834D01*
X032308Y079362D02*
X033075Y079362D01*
X033305Y079368D01*
X033305Y078868D02*
X033323Y078850D01*
X032071Y078850D01*
X032308Y078378D02*
X033315Y078378D01*
X033305Y078368D01*
X033305Y077868D02*
X033307Y077866D01*
X032071Y077866D01*
X032308Y077354D02*
X033319Y077354D01*
X033305Y077368D01*
X033768Y075283D02*
X033768Y075047D01*
X033886Y074929D01*
X035383Y074929D01*
X035422Y074968D01*
X035422Y077468D01*
X039091Y081137D01*
X039091Y080137D02*
X035737Y076783D01*
X035737Y074850D01*
X035501Y074614D01*
X033414Y074614D01*
X033280Y074748D01*
X033280Y074976D01*
X032764Y075279D02*
X032764Y074437D01*
X032902Y074299D01*
X035619Y074299D01*
X036052Y074732D01*
X036052Y076307D01*
X038883Y079137D01*
X039091Y079137D01*
X039091Y078137D02*
X038749Y078137D01*
X037508Y076897D01*
X037115Y076897D01*
X036367Y076149D01*
X036367Y074574D01*
X035776Y073984D01*
X032508Y073984D01*
X032272Y074220D01*
X032272Y074968D01*
X032784Y072330D02*
X032272Y071819D01*
X032272Y071031D01*
X032770Y071281D02*
X032770Y071923D01*
X032863Y072015D01*
X036642Y072015D01*
X036997Y072370D01*
X036997Y075913D01*
X037221Y076137D01*
X039091Y076137D01*
X038217Y076582D02*
X038768Y077134D01*
X039087Y077134D01*
X039091Y077137D01*
X038217Y076582D02*
X037233Y076582D01*
X036682Y076031D01*
X036682Y072488D01*
X036524Y072330D01*
X032784Y072330D01*
X033335Y071700D02*
X033272Y071637D01*
X033272Y071071D01*
X033768Y071267D02*
X033886Y071385D01*
X036485Y071385D01*
X036642Y071228D01*
X036642Y067685D01*
X037627Y066700D01*
X039320Y066700D01*
X039398Y066779D01*
X039398Y067212D01*
X038827Y067212D01*
X038812Y068315D02*
X039398Y068315D01*
X039398Y068708D01*
X039280Y068826D01*
X037036Y068826D01*
X036957Y068905D01*
X036957Y071346D01*
X036603Y071700D01*
X033335Y071700D01*
X033002Y063990D02*
X033004Y063988D01*
X032005Y063988D01*
X032280Y063476D02*
X033016Y063476D01*
X033002Y063490D01*
X033002Y062990D02*
X033028Y062964D01*
X032005Y062964D01*
X032280Y062492D02*
X033004Y062492D01*
X033002Y062490D01*
X033002Y061990D02*
X033012Y061980D01*
X032044Y061980D01*
X032280Y061468D02*
X033024Y061468D01*
X033002Y061490D01*
X033008Y060996D02*
X032044Y060996D01*
X033002Y060990D02*
X033008Y060996D01*
X032666Y059299D02*
X032666Y058787D01*
X033099Y058354D01*
X033690Y058354D01*
X033926Y058590D01*
X035934Y058590D01*
X036524Y059181D01*
X036524Y061779D01*
X038560Y063815D01*
X039150Y063815D01*
X039146Y064811D02*
X038571Y064811D01*
X036209Y062448D01*
X036209Y059299D01*
X035816Y058905D01*
X033808Y058905D01*
X033611Y058708D01*
X033257Y058708D01*
X033158Y058807D01*
X033158Y058984D01*
X033650Y059299D02*
X033886Y059220D01*
X035697Y059220D01*
X035894Y059417D01*
X035894Y063118D01*
X038591Y065815D01*
X039150Y065815D01*
X039150Y064815D02*
X039146Y064811D01*
X039150Y062815D02*
X038544Y062815D01*
X036839Y061110D01*
X036839Y059063D01*
X036052Y058275D01*
X034044Y058275D01*
X033808Y058039D01*
X032863Y058039D01*
X032178Y058724D01*
X032178Y058988D01*
X033493Y056937D02*
X037075Y056937D01*
X037154Y057015D01*
X037154Y059378D01*
X038099Y060323D01*
X038099Y060874D01*
X038375Y061149D01*
X038375Y061425D01*
X038764Y061815D01*
X039150Y061815D01*
X039150Y060815D02*
X038670Y060815D01*
X038414Y060559D01*
X038414Y060204D01*
X037469Y059260D01*
X037469Y056779D01*
X037312Y056622D01*
X033729Y056622D01*
X032660Y055553D01*
X032660Y054974D01*
X033162Y055224D02*
X033162Y055582D01*
X033886Y056307D01*
X037430Y056307D01*
X037784Y056661D01*
X037784Y058984D01*
X038611Y059811D01*
X039146Y059811D01*
X039150Y059815D01*
X039150Y058815D02*
X038520Y058815D01*
X038099Y058393D01*
X038099Y056543D01*
X037548Y055992D01*
X034005Y055992D01*
X033660Y055647D01*
X033660Y054978D01*
X032154Y055244D02*
X032154Y055598D01*
X033493Y056937D01*
X037587Y081307D02*
X038418Y082137D01*
X039091Y082137D01*
X039091Y083137D02*
X038709Y083137D01*
X037194Y081622D01*
X037154Y081622D01*
X036839Y081937D02*
X039044Y084141D01*
X039438Y085165D02*
X036524Y082252D01*
X036288Y082252D01*
X036721Y081937D02*
X036839Y081937D01*
X041347Y085165D02*
X041371Y085141D01*
D23*
X039438Y085165D03*
X039044Y084141D03*
X037587Y081307D03*
X037154Y081622D03*
X036721Y081937D03*
X036288Y082252D03*
X033032Y081826D03*
X031957Y080795D03*
X032347Y080346D03*
X032071Y079834D03*
X032308Y079362D03*
X032071Y078850D03*
X032308Y078378D03*
X032071Y077866D03*
X032308Y077354D03*
X032064Y076830D03*
X032764Y075279D03*
X032272Y074968D03*
X033280Y074976D03*
X033768Y075283D03*
X034201Y073078D03*
X033768Y071267D03*
X033272Y071071D03*
X032770Y071281D03*
X032272Y071031D03*
X031445Y069141D03*
X030776Y068437D03*
X030776Y070441D03*
X032627Y073078D03*
X033414Y070448D03*
X033768Y069811D03*
X035107Y068275D03*
X035619Y068551D03*
X036091Y068826D03*
X035619Y067685D03*
X034989Y066385D03*
X034989Y065204D03*
X034595Y067921D03*
X033020Y067173D03*
X032233Y066385D03*
X033020Y064811D03*
X032005Y063988D03*
X032280Y063476D03*
X032005Y062964D03*
X032280Y062492D03*
X032044Y061980D03*
X032280Y061468D03*
X032044Y060996D03*
X032666Y059299D03*
X032178Y058988D03*
X033158Y058984D03*
X033650Y059299D03*
X033162Y055224D03*
X033660Y054978D03*
X032660Y054974D03*
X032154Y055244D03*
X031445Y054181D03*
X031221Y052370D03*
X033583Y052370D03*
X034595Y054181D03*
X030579Y059889D03*
X031682Y064535D03*
X027508Y069535D03*
X027154Y072370D03*
X027154Y073866D03*
X025611Y072429D03*
X025138Y072193D03*
X024627Y072429D03*
X024115Y072193D03*
X023603Y072429D03*
X023091Y072193D03*
X022619Y072429D03*
X022107Y072193D03*
X021595Y071838D03*
X022981Y069889D03*
X023571Y069889D03*
X024402Y068712D03*
X025095Y068712D03*
X025686Y067531D03*
X025796Y066960D03*
X025451Y066454D03*
X025816Y065952D03*
X025457Y065448D03*
X025816Y064929D03*
X025568Y063948D03*
X026997Y064929D03*
X025331Y059480D03*
X028296Y054181D03*
X028296Y052606D03*
X023650Y065401D03*
X021695Y065454D03*
X021487Y065954D03*
X021692Y066454D03*
X021485Y066976D03*
X020894Y067015D03*
X019477Y072134D03*
X019008Y072500D03*
X020973Y075362D03*
X021091Y077448D03*
X023768Y074023D03*
X025934Y077803D03*
X026327Y079378D03*
X025540Y080952D03*
X024753Y078984D03*
X027115Y081740D03*
X027839Y084114D03*
X027942Y085047D03*
X029489Y081511D03*
X031851Y081826D03*
X031434Y075649D03*
X036564Y066779D03*
X036564Y065204D03*
X037745Y065992D03*
X039398Y067212D03*
X039398Y068315D03*
X039713Y069929D03*
X039713Y070716D03*
X039713Y072685D03*
X039713Y073866D03*
X041682Y070716D03*
X042469Y071504D03*
X042469Y069535D03*
X020737Y085519D03*
X019871Y085637D03*
X015186Y079653D03*
X014949Y079181D03*
X015186Y078669D03*
X014949Y078157D03*
X015186Y077645D03*
X014949Y077134D03*
X014461Y075011D03*
X014949Y074732D03*
X013965Y074732D03*
X013453Y075008D03*
X013965Y071031D03*
X014461Y070756D03*
X014949Y071031D03*
X013453Y070756D03*
X011367Y068748D03*
X010186Y068748D03*
X010186Y067567D03*
X010186Y066779D03*
X010186Y065992D03*
X010186Y065204D03*
X009320Y064417D03*
X009320Y063433D03*
X007036Y069141D03*
X007430Y070323D03*
X007036Y071504D03*
X012548Y060874D03*
X013436Y060399D03*
X013936Y060017D03*
X014436Y060399D03*
X014936Y060073D03*
X015438Y060370D03*
X015934Y060086D03*
X015816Y061858D03*
X015501Y062370D03*
X015264Y062882D03*
X015501Y063354D03*
X015264Y063866D03*
X015501Y064378D03*
X015264Y064850D03*
X015501Y065362D03*
X015697Y066385D03*
X014516Y067173D03*
X016879Y075283D03*
X016524Y075716D03*
X014938Y080161D03*
X019438Y062409D03*
X019438Y061582D03*
X019241Y057724D03*
X017036Y057094D03*
X016485Y054574D03*
X016485Y052606D03*
X014936Y055978D03*
X014438Y056267D03*
X013936Y055982D03*
X013436Y056277D03*
X015422Y056307D03*
X014123Y052606D03*
X011760Y052606D03*
D24*
X012508Y055519D03*
X008965Y051346D03*
X008571Y052134D03*
X008178Y051346D03*
X011091Y066425D03*
X011020Y069511D03*
X012705Y066425D03*
X013453Y068590D03*
X015449Y070232D03*
X016445Y067527D03*
X016879Y066464D03*
X018178Y065441D03*
X018886Y065204D03*
X020068Y063354D03*
X018886Y063118D03*
X020068Y061937D03*
X018886Y060008D03*
X018178Y060519D03*
X016642Y061267D03*
X017666Y063354D03*
X019831Y068118D03*
X022351Y063984D03*
X021603Y063433D03*
X023138Y062921D03*
X023138Y064968D03*
X023052Y068307D03*
X023650Y068826D03*
X026170Y073393D03*
X026170Y075323D03*
X025776Y076346D03*
X025264Y075874D03*
X026288Y076819D03*
X028217Y078354D03*
X028690Y077842D03*
X028729Y078905D03*
X029989Y080244D03*
X030383Y081346D03*
X028611Y081700D03*
X028060Y081307D03*
X029005Y086228D03*
X029005Y087645D03*
X029005Y089141D03*
X023257Y081622D03*
X022587Y081110D03*
X020422Y079929D03*
X019871Y080362D03*
X019320Y080795D03*
X018453Y080362D03*
X017666Y080952D03*
X017390Y078078D03*
X018375Y077527D03*
X017863Y077015D03*
X018926Y078078D03*
X019320Y083000D03*
X019871Y083385D03*
X020422Y083787D03*
X018493Y086307D03*
X018729Y088826D03*
X015776Y083118D03*
X013257Y080795D03*
X013375Y079378D03*
X010579Y081346D03*
X009438Y083118D03*
X008571Y081819D03*
X008532Y080756D03*
X013335Y087252D03*
X016367Y076228D03*
X022115Y060992D03*
X023138Y059023D03*
X024753Y058590D03*
X026524Y056173D03*
X026760Y057173D03*
X026760Y058590D03*
X028532Y060008D03*
X027981Y061464D03*
X027444Y061990D03*
X029438Y063511D03*
X029398Y065008D03*
X027627Y068551D03*
X026839Y068945D03*
X028217Y070795D03*
X028690Y071267D03*
X029398Y072252D03*
X031288Y072685D03*
X031760Y072960D03*
X031603Y073551D03*
X037036Y084141D03*
X037272Y085086D03*
X039674Y087567D03*
X039713Y089220D03*
X037627Y089260D03*
X037508Y075244D03*
X039438Y071464D03*
X038808Y070165D03*
X037508Y070165D03*
X037194Y068000D03*
X031642Y059299D03*
X030776Y055874D03*
X031642Y055008D03*
X028532Y056622D03*
X027444Y055100D03*
X027981Y054811D03*
X021131Y054299D03*
X021091Y057842D03*
X021249Y058433D03*
X020619Y059378D03*
X035934Y055519D03*
X038886Y052134D03*
X038886Y051346D03*
X039674Y051740D03*
D25*
X006955Y050898D02*
X006722Y050764D01*
X041603Y050764D01*
X041369Y050898D01*
X041155Y051113D01*
X041004Y051375D01*
X040925Y051667D01*
X040925Y051970D01*
X041004Y052262D01*
X041155Y052525D01*
X041369Y052739D01*
X041632Y052890D01*
X041924Y052968D01*
X042227Y052968D01*
X042519Y052890D01*
X042781Y052739D01*
X042996Y052525D01*
X043130Y052291D01*
X043130Y057169D01*
X043083Y057150D01*
X043083Y057133D01*
X043103Y057113D01*
X043103Y056500D01*
X043083Y056480D01*
X043083Y056133D01*
X043103Y056113D01*
X043103Y055500D01*
X043083Y055480D01*
X043083Y055073D01*
X042973Y054808D01*
X042523Y054358D01*
X042258Y054248D01*
X041980Y054248D01*
X040324Y052592D01*
X040121Y052389D01*
X039856Y052280D01*
X036485Y052280D01*
X035301Y051096D01*
X035301Y051096D01*
X035098Y050893D01*
X034834Y050784D01*
X018625Y050784D01*
X018360Y050893D01*
X017219Y052035D01*
X017016Y052237D01*
X016907Y052502D01*
X016907Y052781D01*
X006882Y052781D01*
X006955Y052739D01*
X007169Y052525D01*
X007320Y052262D01*
X007399Y051970D01*
X007399Y051667D01*
X007320Y051375D01*
X007169Y051113D01*
X006955Y050898D01*
X007016Y050959D02*
X018294Y050959D01*
X018056Y051198D02*
X007218Y051198D01*
X007337Y051436D02*
X017817Y051436D01*
X017579Y051675D02*
X007399Y051675D01*
X007399Y051913D02*
X017340Y051913D01*
X017102Y052152D02*
X007350Y052152D01*
X007246Y052390D02*
X016953Y052390D01*
X016907Y052629D02*
X007065Y052629D01*
X010260Y054321D02*
X010260Y054560D01*
X010153Y054817D01*
X009965Y055006D01*
X010052Y055092D01*
X010140Y055306D01*
X010140Y055536D01*
X010121Y055582D01*
X010419Y055877D01*
X012134Y055877D01*
X012069Y055813D01*
X011990Y055622D01*
X011990Y055416D01*
X012069Y055226D01*
X012215Y055080D01*
X012405Y055001D01*
X012612Y055001D01*
X012800Y055079D01*
X017720Y055079D01*
X018671Y054128D01*
X018795Y054005D01*
X018956Y053938D01*
X019534Y053938D01*
X019341Y053745D01*
X019202Y053410D01*
X019202Y053047D01*
X019308Y052791D01*
X019308Y052224D01*
X019067Y052224D01*
X018347Y052944D01*
X018347Y053277D01*
X018397Y053398D01*
X018397Y053704D01*
X018279Y053987D01*
X018063Y054204D01*
X017780Y054321D01*
X010260Y054321D01*
X010260Y054537D02*
X018263Y054537D01*
X018501Y054298D02*
X017834Y054298D01*
X018207Y054060D02*
X018740Y054060D01*
X018671Y054128D02*
X018671Y054128D01*
X018348Y053821D02*
X019418Y053821D01*
X019274Y053583D02*
X018397Y053583D01*
X018374Y053344D02*
X019202Y053344D01*
X019202Y053106D02*
X018347Y053106D01*
X018423Y052867D02*
X019277Y052867D01*
X019308Y052629D02*
X018661Y052629D01*
X018900Y052390D02*
X019308Y052390D01*
X019044Y054378D02*
X021052Y054378D01*
X021131Y054299D01*
X021649Y054298D02*
X022832Y054298D01*
X023070Y054060D02*
X021592Y054060D01*
X021570Y054005D02*
X021649Y054196D01*
X021649Y054402D01*
X021570Y054592D01*
X021424Y054738D01*
X021234Y054817D01*
X021141Y054817D01*
X021139Y054818D01*
X019226Y054818D01*
X018151Y055892D01*
X017990Y055959D01*
X015779Y055959D01*
X015844Y056024D01*
X015877Y056103D01*
X020194Y056103D01*
X020328Y056158D01*
X020328Y055629D01*
X020803Y055154D01*
X021474Y055154D01*
X021723Y055404D01*
X021853Y055274D01*
X021856Y055274D01*
X023317Y053813D01*
X023440Y053690D01*
X023568Y053637D01*
X023542Y053602D01*
X023496Y053523D01*
X023462Y053439D01*
X023438Y053352D01*
X023426Y053262D01*
X023426Y053254D01*
X024081Y053254D01*
X024081Y053179D01*
X023426Y053179D01*
X023426Y053171D01*
X023438Y053081D01*
X023462Y052993D01*
X023496Y052909D01*
X023542Y052831D01*
X023597Y052759D01*
X023661Y052694D01*
X023733Y052639D01*
X023812Y052594D01*
X023896Y052559D01*
X023983Y052536D01*
X024073Y052524D01*
X024081Y052524D01*
X024081Y053179D01*
X024156Y053179D01*
X024156Y053254D01*
X024811Y053254D01*
X024811Y053262D01*
X024799Y053352D01*
X024776Y053439D01*
X024741Y053523D01*
X024696Y053602D01*
X024680Y053623D01*
X025299Y053623D01*
X025206Y053398D01*
X025206Y053035D01*
X025345Y052699D01*
X025399Y052646D01*
X025399Y052224D01*
X020748Y052224D01*
X020748Y052571D01*
X020888Y052711D01*
X021027Y053047D01*
X021027Y053410D01*
X020888Y053745D01*
X020696Y053938D01*
X020759Y053938D01*
X020837Y053860D01*
X021027Y053781D01*
X021234Y053781D01*
X021424Y053860D01*
X021570Y054005D01*
X021725Y053793D02*
X021653Y053738D01*
X021589Y053674D01*
X021534Y053602D01*
X021488Y053523D01*
X021454Y053439D01*
X021430Y053352D01*
X021418Y053262D01*
X021418Y053254D01*
X022073Y053254D01*
X022073Y053179D01*
X021418Y053179D01*
X021418Y053171D01*
X021430Y053081D01*
X021454Y052993D01*
X021488Y052909D01*
X021534Y052831D01*
X021589Y052759D01*
X021653Y052694D01*
X021725Y052639D01*
X021804Y052594D01*
X021888Y052559D01*
X021975Y052536D01*
X022065Y052524D01*
X022073Y052524D01*
X022073Y053179D01*
X022148Y053179D01*
X022148Y052524D01*
X022156Y052524D01*
X022246Y052536D01*
X022334Y052559D01*
X022418Y052594D01*
X022496Y052639D01*
X022568Y052694D01*
X022633Y052759D01*
X022688Y052831D01*
X022733Y052909D01*
X022768Y052993D01*
X022791Y053081D01*
X022803Y053171D01*
X022803Y053179D01*
X022148Y053179D01*
X022148Y053254D01*
X022073Y053254D01*
X022073Y053909D01*
X022065Y053909D01*
X021975Y053897D01*
X021888Y053873D01*
X021804Y053839D01*
X021725Y053793D01*
X021774Y053821D02*
X021331Y053821D01*
X021523Y053583D02*
X020955Y053583D01*
X020930Y053821D02*
X020812Y053821D01*
X021027Y053344D02*
X021429Y053344D01*
X021427Y053106D02*
X021027Y053106D01*
X020953Y052867D02*
X021513Y052867D01*
X021743Y052629D02*
X020806Y052629D01*
X020748Y052390D02*
X025399Y052390D01*
X025399Y052629D02*
X024486Y052629D01*
X024504Y052639D02*
X024576Y052694D01*
X024640Y052759D01*
X024696Y052831D01*
X024741Y052909D01*
X024776Y052993D01*
X024799Y053081D01*
X024811Y053171D01*
X024811Y053179D01*
X024156Y053179D01*
X024156Y052524D01*
X024164Y052524D01*
X024254Y052536D01*
X024342Y052559D01*
X024426Y052594D01*
X024504Y052639D01*
X024717Y052867D02*
X025276Y052867D01*
X025206Y053106D02*
X024803Y053106D01*
X024800Y053344D02*
X025206Y053344D01*
X025283Y053583D02*
X024707Y053583D01*
X024156Y053106D02*
X024081Y053106D01*
X024081Y052867D02*
X024156Y052867D01*
X024156Y052629D02*
X024081Y052629D01*
X023751Y052629D02*
X022478Y052629D01*
X022148Y052629D02*
X022073Y052629D01*
X022073Y052867D02*
X022148Y052867D01*
X022148Y053106D02*
X022073Y053106D01*
X022148Y053254D02*
X022803Y053254D01*
X022803Y053262D01*
X022791Y053352D01*
X022768Y053439D01*
X022733Y053523D01*
X022688Y053602D01*
X022633Y053674D01*
X022568Y053738D01*
X022496Y053793D01*
X022418Y053839D01*
X022334Y053873D01*
X022246Y053897D01*
X022156Y053909D01*
X022148Y053909D01*
X022148Y053254D01*
X022148Y053344D02*
X022073Y053344D01*
X022073Y053583D02*
X022148Y053583D01*
X022148Y053821D02*
X022073Y053821D01*
X022448Y053821D02*
X023309Y053821D01*
X023531Y053583D02*
X022699Y053583D01*
X022792Y053344D02*
X023437Y053344D01*
X023435Y053106D02*
X022795Y053106D01*
X022709Y052867D02*
X023521Y052867D01*
X023690Y054063D02*
X027233Y054063D01*
X027981Y054811D01*
X028458Y055014D02*
X031124Y055014D01*
X031124Y055111D02*
X031124Y054904D01*
X031203Y054714D01*
X031349Y054568D01*
X031539Y054489D01*
X031745Y054489D01*
X031936Y054568D01*
X032082Y054714D01*
X032095Y054745D01*
X032215Y054745D01*
X032238Y054692D01*
X032378Y054552D01*
X032561Y054476D01*
X032759Y054476D01*
X032942Y054552D01*
X033083Y054692D01*
X033097Y054726D01*
X033225Y054726D01*
X033238Y054696D01*
X033378Y054555D01*
X033561Y054480D01*
X033759Y054480D01*
X033942Y054555D01*
X034083Y054696D01*
X034158Y054879D01*
X034158Y055077D01*
X034083Y055260D01*
X034060Y055283D01*
X034060Y055482D01*
X034170Y055592D01*
X035296Y055592D01*
X035296Y055392D01*
X035334Y055300D01*
X035334Y053165D01*
X034392Y052224D01*
X026839Y052224D01*
X026839Y052646D01*
X026892Y052699D01*
X027031Y053035D01*
X027031Y053398D01*
X026938Y053623D01*
X027320Y053623D01*
X027482Y053690D01*
X028086Y054293D01*
X028274Y054371D01*
X028420Y054517D01*
X028499Y054708D01*
X028499Y054914D01*
X028420Y055104D01*
X028274Y055250D01*
X028084Y055329D01*
X027910Y055329D01*
X027883Y055394D01*
X027737Y055539D01*
X027584Y055603D01*
X028163Y056182D01*
X028240Y056182D01*
X028429Y056104D01*
X028635Y056104D01*
X028826Y056182D01*
X028971Y056328D01*
X029050Y056519D01*
X029050Y056725D01*
X029047Y056733D01*
X029295Y056733D01*
X030259Y055769D01*
X030337Y055580D01*
X030483Y055434D01*
X030673Y055356D01*
X030879Y055356D01*
X031070Y055434D01*
X031202Y055567D01*
X031202Y055299D01*
X031124Y055111D01*
X031183Y055252D02*
X028269Y055252D01*
X028499Y054775D02*
X031178Y054775D01*
X031425Y054537D02*
X028428Y054537D01*
X028098Y054298D02*
X035334Y054298D01*
X035334Y054060D02*
X027852Y054060D01*
X027614Y053821D02*
X035334Y053821D01*
X035334Y053583D02*
X026955Y053583D01*
X027031Y053344D02*
X035334Y053344D01*
X035274Y053106D02*
X027031Y053106D01*
X026962Y052867D02*
X035036Y052867D01*
X034797Y052629D02*
X026839Y052629D01*
X026839Y052390D02*
X034559Y052390D01*
X035641Y051436D02*
X040987Y051436D01*
X040925Y051675D02*
X035880Y051675D01*
X036118Y051913D02*
X040925Y051913D01*
X040974Y052152D02*
X036357Y052152D01*
X035403Y051198D02*
X041106Y051198D01*
X041308Y050959D02*
X035164Y050959D01*
X035334Y054537D02*
X033897Y054537D01*
X034116Y054775D02*
X035334Y054775D01*
X035334Y055014D02*
X034158Y055014D01*
X034086Y055252D02*
X035334Y055252D01*
X035296Y055491D02*
X034069Y055491D01*
X033423Y054537D02*
X032907Y054537D01*
X032413Y054537D02*
X031860Y054537D01*
X031642Y055008D02*
X031642Y055952D01*
X029910Y057685D01*
X024753Y057685D01*
X024138Y057071D01*
X024138Y056964D01*
X023138Y057370D02*
X023886Y058118D01*
X031249Y058118D01*
X031642Y058511D01*
X031642Y059299D01*
X031124Y059307D02*
X024169Y059307D01*
X024169Y059308D02*
X024102Y059469D01*
X024004Y059568D01*
X028240Y059568D01*
X028429Y059489D01*
X028635Y059489D01*
X028826Y059568D01*
X028971Y059714D01*
X029050Y059904D01*
X029050Y060111D01*
X028971Y060301D01*
X028843Y060430D01*
X029862Y060430D01*
X029862Y060296D01*
X029911Y060179D01*
X030001Y060089D01*
X030105Y060046D01*
X030081Y059989D01*
X030081Y059790D01*
X030157Y059607D01*
X030297Y059467D01*
X030480Y059391D01*
X030679Y059391D01*
X030862Y059467D01*
X031002Y059607D01*
X031078Y059790D01*
X031078Y059989D01*
X031055Y060044D01*
X031163Y060089D01*
X031253Y060179D01*
X031302Y060296D01*
X031302Y060558D01*
X031355Y060611D01*
X031422Y060772D01*
X031422Y061207D01*
X031355Y061369D01*
X031302Y061422D01*
X031302Y061683D01*
X031279Y061740D01*
X031302Y061796D01*
X031302Y062069D01*
X031417Y062117D01*
X031541Y062241D01*
X031608Y062402D01*
X031608Y062577D01*
X031541Y062739D01*
X031417Y062863D01*
X031302Y062911D01*
X031302Y063061D01*
X031437Y063117D01*
X031616Y063296D01*
X031740Y063420D01*
X031782Y063521D01*
X031782Y063411D01*
X031722Y063387D01*
X031582Y063247D01*
X031506Y063063D01*
X031506Y062865D01*
X031582Y062682D01*
X031722Y062542D01*
X031782Y062517D01*
X031782Y062411D01*
X031762Y062403D01*
X031621Y062262D01*
X031545Y062079D01*
X031545Y061881D01*
X031621Y061698D01*
X031762Y061557D01*
X031782Y061549D01*
X031782Y061427D01*
X031762Y061418D01*
X031621Y061278D01*
X031545Y061095D01*
X031545Y060897D01*
X031621Y060713D01*
X031762Y060573D01*
X031945Y060497D01*
X032143Y060497D01*
X032326Y060573D01*
X032349Y060596D01*
X032382Y060596D01*
X032382Y060490D01*
X033002Y060490D01*
X033002Y060490D01*
X033002Y060540D01*
X033002Y060540D01*
X033002Y060490D01*
X033622Y060490D01*
X033622Y060627D01*
X033673Y060679D01*
X033722Y060796D01*
X033722Y061183D01*
X033699Y061240D01*
X033722Y061296D01*
X033722Y061683D01*
X033699Y061740D01*
X033722Y061796D01*
X033722Y062183D01*
X033699Y062240D01*
X033722Y062296D01*
X033722Y062683D01*
X033699Y062740D01*
X033722Y062796D01*
X033722Y063183D01*
X033699Y063240D01*
X033722Y063296D01*
X033722Y063683D01*
X033699Y063740D01*
X033722Y063796D01*
X033722Y064183D01*
X033673Y064301D01*
X033583Y064391D01*
X033466Y064440D01*
X032538Y064440D01*
X032421Y064391D01*
X032417Y064388D01*
X032309Y064388D01*
X032287Y064410D01*
X032180Y064455D01*
X032180Y064634D01*
X032104Y064817D01*
X032043Y064879D01*
X032047Y064890D01*
X032144Y064890D01*
X032144Y065322D01*
X032144Y065322D01*
X032144Y064890D01*
X032380Y064890D01*
X032436Y064905D01*
X032486Y064934D01*
X032527Y064975D01*
X032556Y065025D01*
X032571Y065081D01*
X032571Y065322D01*
X032144Y065322D01*
X032144Y065323D01*
X032144Y065755D01*
X032047Y065755D01*
X032035Y065784D01*
X031911Y065908D01*
X031750Y065975D01*
X031500Y065975D01*
X033242Y067717D01*
X034140Y067717D01*
X034173Y067639D01*
X034313Y067498D01*
X034496Y067423D01*
X034694Y067423D01*
X034877Y067498D01*
X035018Y067639D01*
X035075Y067777D01*
X035206Y067777D01*
X035389Y067853D01*
X035529Y067993D01*
X035554Y068052D01*
X035718Y068052D01*
X035901Y068128D01*
X036041Y068269D01*
X036066Y068328D01*
X036190Y068328D01*
X036242Y068350D01*
X036242Y067605D01*
X036303Y067458D01*
X037287Y066474D01*
X037400Y066361D01*
X037547Y066300D01*
X038556Y066300D01*
X038441Y066185D01*
X038365Y066154D01*
X038252Y066041D01*
X035555Y063344D01*
X035494Y063197D01*
X035494Y059620D01*
X034034Y059620D01*
X033933Y059721D01*
X033749Y059797D01*
X033551Y059797D01*
X033368Y059721D01*
X033228Y059581D01*
X033187Y059482D01*
X033129Y059482D01*
X033089Y059581D01*
X032948Y059721D01*
X032765Y059797D01*
X032567Y059797D01*
X032384Y059721D01*
X032243Y059581D01*
X032204Y059486D01*
X032126Y059486D01*
X032082Y059592D01*
X031936Y059738D01*
X031745Y059817D01*
X031539Y059817D01*
X031349Y059738D01*
X031203Y059592D01*
X031124Y059402D01*
X031124Y059196D01*
X031202Y059007D01*
X031202Y058694D01*
X031066Y058558D01*
X027279Y058558D01*
X027279Y058693D01*
X027200Y058884D01*
X027054Y059029D01*
X026864Y059108D01*
X026657Y059108D01*
X026469Y059030D01*
X025044Y059030D01*
X024856Y059108D01*
X024650Y059108D01*
X024461Y059030D01*
X024169Y059030D01*
X024169Y059308D01*
X024169Y059068D02*
X024553Y059068D01*
X024952Y059068D02*
X026561Y059068D01*
X026960Y059068D02*
X031177Y059068D01*
X031202Y058830D02*
X027222Y058830D01*
X027279Y058591D02*
X031100Y058591D01*
X031184Y059545D02*
X030940Y059545D01*
X031075Y059784D02*
X031459Y059784D01*
X031826Y059784D02*
X032534Y059784D01*
X032798Y059784D02*
X033518Y059784D01*
X033782Y059784D02*
X035494Y059784D01*
X035494Y060022D02*
X031064Y060022D01*
X031287Y060261D02*
X032405Y060261D01*
X032397Y060275D02*
X032426Y060225D01*
X032467Y060184D01*
X032517Y060155D01*
X032573Y060140D01*
X033002Y060140D01*
X033431Y060140D01*
X033487Y060155D01*
X033537Y060184D01*
X033578Y060225D01*
X033607Y060275D01*
X033622Y060331D01*
X033622Y060490D01*
X033002Y060490D01*
X033002Y060490D01*
X033002Y060490D01*
X032382Y060490D01*
X032382Y060331D01*
X032397Y060275D01*
X032382Y060499D02*
X032148Y060499D01*
X031940Y060499D02*
X031302Y060499D01*
X031408Y060738D02*
X031611Y060738D01*
X031545Y060976D02*
X031422Y060976D01*
X031419Y061215D02*
X031595Y061215D01*
X031782Y061453D02*
X031302Y061453D01*
X031299Y061692D02*
X031627Y061692D01*
X031545Y061930D02*
X031302Y061930D01*
X031469Y062169D02*
X031583Y062169D01*
X031608Y062407D02*
X031773Y062407D01*
X031618Y062646D02*
X031580Y062646D01*
X031506Y062884D02*
X031365Y062884D01*
X031443Y063123D02*
X031531Y063123D01*
X031681Y063361D02*
X031697Y063361D01*
X031367Y063669D02*
X031367Y064220D01*
X031682Y064535D01*
X032180Y064554D02*
X036765Y064554D01*
X037003Y064792D02*
X032115Y064792D01*
X032144Y065031D02*
X032144Y065031D01*
X032144Y065269D02*
X032144Y065269D01*
X032144Y065323D02*
X032571Y065323D01*
X032571Y065564D01*
X032556Y065620D01*
X032527Y065670D01*
X032486Y065711D01*
X032436Y065740D01*
X032380Y065755D01*
X032144Y065755D01*
X032144Y065323D01*
X032144Y065323D01*
X032144Y065508D02*
X032144Y065508D01*
X032144Y065746D02*
X032144Y065746D01*
X032413Y065746D02*
X037957Y065746D01*
X037719Y065508D02*
X032571Y065508D01*
X032571Y065269D02*
X037480Y065269D01*
X037242Y065031D02*
X032558Y065031D01*
X031455Y065323D02*
X030582Y064449D01*
X030582Y063990D01*
X029916Y063990D01*
X029438Y063511D01*
X029969Y062921D02*
X030038Y062990D01*
X030582Y062990D01*
X030582Y063490D02*
X031188Y063490D01*
X031367Y063669D01*
X031168Y062490D02*
X030582Y062490D01*
X030580Y062488D01*
X030028Y062488D01*
X029949Y062409D01*
X020973Y062409D01*
X020619Y062763D01*
X020619Y063551D01*
X020540Y063551D01*
X018886Y065204D01*
X018965Y065204D01*
X019404Y065309D02*
X019326Y065498D01*
X019180Y065644D01*
X018990Y065723D01*
X018783Y065723D01*
X018756Y065711D01*
X018719Y065802D01*
X018539Y065982D01*
X018305Y066079D01*
X018051Y066079D01*
X017816Y065982D01*
X017770Y065936D01*
X017612Y065936D01*
X017612Y066069D01*
X017563Y066187D01*
X017473Y066277D01*
X017378Y066316D01*
X017397Y066361D01*
X017397Y066567D01*
X017318Y066758D01*
X017172Y066903D01*
X016982Y066982D01*
X016776Y066982D01*
X016585Y066903D01*
X016439Y066758D01*
X016360Y066567D01*
X016360Y066361D01*
X016383Y066307D01*
X016310Y066277D01*
X016220Y066187D01*
X016172Y066069D01*
X016172Y065808D01*
X016119Y065755D01*
X016052Y065593D01*
X016052Y065158D01*
X016119Y064996D01*
X016172Y064943D01*
X016172Y064682D01*
X016195Y064626D01*
X016172Y064569D01*
X016172Y064182D01*
X016195Y064126D01*
X016172Y064069D01*
X016172Y063682D01*
X016195Y063626D01*
X016172Y063569D01*
X016172Y063263D01*
X016056Y063215D01*
X015943Y063102D01*
X015931Y063090D01*
X015999Y063255D01*
X015999Y063453D01*
X015923Y063636D01*
X015783Y063777D01*
X015763Y063785D01*
X015763Y063947D01*
X015783Y063955D01*
X015923Y064095D01*
X015999Y064278D01*
X015999Y064477D01*
X015923Y064660D01*
X015783Y064800D01*
X015763Y064809D01*
X015763Y064931D01*
X015783Y064939D01*
X015923Y065080D01*
X015999Y065263D01*
X015999Y065461D01*
X015923Y065644D01*
X015783Y065784D01*
X015600Y065860D01*
X015401Y065860D01*
X015218Y065784D01*
X015196Y065762D01*
X015092Y065762D01*
X015092Y065876D01*
X015092Y066035D01*
X015077Y066091D01*
X015048Y066141D01*
X015007Y066182D01*
X014957Y066211D01*
X014901Y066226D01*
X014472Y066226D01*
X014472Y065876D01*
X014472Y065876D01*
X015092Y065876D01*
X014472Y065876D01*
X014472Y065876D01*
X014472Y066226D01*
X014043Y066226D01*
X013987Y066211D01*
X013937Y066182D01*
X013896Y066141D01*
X013867Y066091D01*
X013852Y066035D01*
X013852Y065876D01*
X014472Y065876D01*
X014472Y065876D01*
X014472Y065826D01*
X014472Y065826D01*
X014472Y065876D01*
X014472Y065876D01*
X013852Y065876D01*
X013852Y065738D01*
X013800Y065687D01*
X013752Y065569D01*
X013752Y065182D01*
X013775Y065126D01*
X013752Y065069D01*
X013752Y064682D01*
X013775Y064626D01*
X013752Y064569D01*
X013752Y064182D01*
X013775Y064126D01*
X013752Y064069D01*
X013752Y063682D01*
X013775Y063626D01*
X013752Y063569D01*
X013752Y063182D01*
X013775Y063126D01*
X013752Y063069D01*
X013752Y062682D01*
X013775Y062626D01*
X013752Y062569D01*
X013752Y062182D01*
X013800Y062064D01*
X013890Y061974D01*
X014008Y061926D01*
X014935Y061926D01*
X015042Y061970D01*
X015196Y061970D01*
X015218Y061947D01*
X015317Y061906D01*
X015317Y061759D01*
X015393Y061576D01*
X015533Y061435D01*
X015716Y061360D01*
X015915Y061360D01*
X016005Y061397D01*
X016004Y061394D01*
X016004Y061140D01*
X016101Y060906D01*
X016281Y060726D01*
X016469Y060648D01*
X016601Y060517D01*
X016807Y060432D01*
X017540Y060432D01*
X017540Y060392D01*
X017637Y060158D01*
X017816Y059978D01*
X018051Y059881D01*
X018305Y059881D01*
X018368Y059908D01*
X018368Y059904D01*
X018404Y059818D01*
X016374Y059818D01*
X016374Y059846D01*
X016432Y059987D01*
X016432Y060185D01*
X016356Y060369D01*
X016216Y060509D01*
X016033Y060585D01*
X015888Y060585D01*
X015860Y060652D01*
X015720Y060792D01*
X015537Y060868D01*
X015338Y060868D01*
X015155Y060792D01*
X015015Y060652D01*
X014981Y060571D01*
X014904Y060571D01*
X014858Y060682D01*
X014718Y060822D01*
X014535Y060898D01*
X014337Y060898D01*
X014153Y060822D01*
X014013Y060682D01*
X013944Y060516D01*
X013927Y060516D01*
X013858Y060682D01*
X013718Y060822D01*
X013535Y060898D01*
X013337Y060898D01*
X013153Y060822D01*
X013013Y060682D01*
X012937Y060498D01*
X012937Y060408D01*
X011169Y060408D01*
X011137Y061666D01*
X011137Y061741D01*
X011135Y061746D01*
X011135Y061751D01*
X011104Y061819D01*
X011076Y061888D01*
X011072Y061891D01*
X011070Y061896D01*
X011016Y061948D01*
X010316Y062648D01*
X010204Y062760D01*
X010057Y062821D01*
X009980Y062821D01*
X009888Y062913D01*
X009675Y063001D01*
X009579Y063001D01*
X009602Y063010D01*
X009742Y063150D01*
X009818Y063334D01*
X009818Y063365D01*
X009979Y063527D01*
X010092Y063639D01*
X010153Y063786D01*
X010153Y069881D01*
X010588Y070316D01*
X013212Y070316D01*
X013354Y070257D01*
X013553Y070257D01*
X013736Y070333D01*
X013876Y070473D01*
X013901Y070533D01*
X014014Y070533D01*
X014039Y070473D01*
X014179Y070333D01*
X014362Y070257D01*
X014560Y070257D01*
X014744Y070333D01*
X014884Y070473D01*
X014908Y070533D01*
X015018Y070533D01*
X015010Y070525D01*
X014931Y070335D01*
X014931Y070129D01*
X015010Y069938D01*
X015156Y069793D01*
X015346Y069714D01*
X015552Y069714D01*
X015743Y069793D01*
X015744Y069793D01*
X017535Y069803D01*
X019313Y068015D01*
X019313Y068015D01*
X019333Y067967D01*
X016737Y067967D01*
X016549Y068045D01*
X016342Y068045D01*
X016152Y067966D01*
X016006Y067821D01*
X015927Y067630D01*
X015927Y067424D01*
X016006Y067234D01*
X016152Y067088D01*
X016342Y067009D01*
X016549Y067009D01*
X016737Y067087D01*
X020200Y067087D01*
X020413Y066874D01*
X020472Y066733D01*
X020612Y066593D01*
X020795Y066517D01*
X020993Y066517D01*
X021167Y066589D01*
X021196Y066560D01*
X021193Y066554D01*
X021193Y066366D01*
X021064Y066237D01*
X020988Y066054D01*
X020988Y065855D01*
X021064Y065672D01*
X021197Y065539D01*
X021197Y065355D01*
X021273Y065172D01*
X021320Y065125D01*
X021216Y065081D01*
X021092Y064958D01*
X021080Y064928D01*
X020983Y064928D01*
X020983Y064496D01*
X020983Y064496D01*
X020983Y064928D01*
X020747Y064928D01*
X020691Y064913D01*
X020641Y064884D01*
X020600Y064843D01*
X020571Y064793D01*
X020556Y064737D01*
X020556Y064496D01*
X020983Y064496D01*
X020983Y064496D01*
X020983Y064063D01*
X021080Y064063D01*
X021092Y064034D01*
X021216Y063910D01*
X021309Y063872D01*
X021164Y063726D01*
X021085Y063536D01*
X021085Y063330D01*
X021164Y063139D01*
X021309Y062994D01*
X021500Y062915D01*
X021706Y062915D01*
X021895Y062993D01*
X022620Y062993D01*
X022620Y062849D01*
X021155Y062849D01*
X021059Y062946D01*
X021059Y063638D01*
X020992Y063800D01*
X020868Y063924D01*
X020734Y063980D01*
X019404Y065309D01*
X019444Y065269D02*
X021233Y065269D01*
X021197Y065508D02*
X019316Y065508D01*
X019682Y065031D02*
X021165Y065031D01*
X020983Y064792D02*
X020983Y064792D01*
X020983Y064554D02*
X020983Y064554D01*
X020983Y064496D02*
X020556Y064496D01*
X020556Y064254D01*
X020571Y064198D01*
X020600Y064148D01*
X020641Y064107D01*
X020691Y064078D01*
X020747Y064063D01*
X020983Y064063D01*
X020983Y064496D01*
X020983Y064496D01*
X020983Y064315D02*
X020983Y064315D01*
X020983Y064077D02*
X020983Y064077D01*
X020954Y063838D02*
X021276Y063838D01*
X021111Y063600D02*
X021059Y063600D01*
X021059Y063361D02*
X021085Y063361D01*
X021059Y063123D02*
X021180Y063123D01*
X021120Y062884D02*
X022620Y062884D01*
X023138Y062921D02*
X029969Y062921D01*
X030582Y061990D02*
X027444Y061990D01*
X027430Y061976D01*
X020737Y061976D01*
X018337Y064376D01*
X016892Y064376D01*
X016892Y064876D02*
X018546Y064876D01*
X020068Y063354D01*
X020636Y064077D02*
X020696Y064077D01*
X020556Y064315D02*
X020398Y064315D01*
X020556Y064554D02*
X020159Y064554D01*
X019921Y064792D02*
X020571Y064792D01*
X021034Y065746D02*
X018742Y065746D01*
X018532Y065985D02*
X020988Y065985D01*
X021059Y066223D02*
X017527Y066223D01*
X017612Y065985D02*
X017824Y065985D01*
X017397Y066462D02*
X021193Y066462D01*
X020894Y067015D02*
X020383Y067527D01*
X016445Y067527D01*
X016603Y067527D01*
X016670Y066939D02*
X013094Y066939D01*
X013067Y066966D02*
X012832Y067063D01*
X012578Y067063D01*
X012390Y066985D01*
X011407Y066985D01*
X011218Y067063D01*
X010964Y067063D01*
X010730Y066966D01*
X010550Y066786D01*
X010453Y066552D01*
X010453Y066298D01*
X010550Y066063D01*
X010730Y065884D01*
X010964Y065787D01*
X011218Y065787D01*
X011407Y065865D01*
X012390Y065865D01*
X012578Y065787D01*
X012832Y065787D01*
X013067Y065884D01*
X013246Y066063D01*
X013343Y066298D01*
X013343Y066552D01*
X013246Y066786D01*
X013067Y066966D01*
X013282Y066700D02*
X016416Y066700D01*
X016360Y066462D02*
X013343Y066462D01*
X013313Y066223D02*
X014034Y066223D01*
X013852Y065985D02*
X013168Y065985D01*
X012705Y066425D02*
X011091Y066425D01*
X010629Y065985D02*
X010153Y065985D01*
X010153Y066223D02*
X010484Y066223D01*
X010453Y066462D02*
X010153Y066462D01*
X010153Y066700D02*
X010515Y066700D01*
X010703Y066939D02*
X010153Y066939D01*
X010153Y067177D02*
X016063Y067177D01*
X015931Y067416D02*
X010153Y067416D01*
X010153Y067654D02*
X015937Y067654D01*
X016078Y067893D02*
X010153Y067893D01*
X010153Y068131D02*
X013010Y068131D01*
X013092Y068049D02*
X013326Y067952D01*
X013580Y067952D01*
X013815Y068049D01*
X013994Y068229D01*
X014091Y068463D01*
X014091Y068717D01*
X014013Y068906D01*
X014013Y069627D01*
X013928Y069833D01*
X013771Y069990D01*
X013565Y070075D01*
X011326Y070075D01*
X011147Y070150D01*
X010893Y070150D01*
X010659Y070052D01*
X010479Y069873D01*
X010382Y069638D01*
X010382Y069385D01*
X010479Y069150D01*
X010659Y068971D01*
X010893Y068873D01*
X011147Y068873D01*
X011345Y068955D01*
X012893Y068955D01*
X012893Y068906D01*
X012815Y068717D01*
X012815Y068463D01*
X012912Y068229D01*
X013092Y068049D01*
X012854Y068370D02*
X010153Y068370D01*
X010153Y068608D02*
X012815Y068608D01*
X012869Y068847D02*
X010153Y068847D01*
X010153Y069085D02*
X010544Y069085D01*
X010407Y069324D02*
X010153Y069324D01*
X010153Y069562D02*
X010382Y069562D01*
X010449Y069801D02*
X010153Y069801D01*
X010311Y070039D02*
X010646Y070039D01*
X010549Y070278D02*
X013304Y070278D01*
X013602Y070278D02*
X014312Y070278D01*
X014610Y070278D02*
X014931Y070278D01*
X014902Y070516D02*
X015006Y070516D01*
X014968Y070039D02*
X013652Y070039D01*
X013941Y069801D02*
X015148Y069801D01*
X015449Y070232D02*
X017717Y070244D01*
X019831Y068118D01*
X019197Y068131D02*
X013897Y068131D01*
X014053Y068370D02*
X018960Y068370D01*
X018723Y068608D02*
X014091Y068608D01*
X014038Y068847D02*
X018486Y068847D01*
X018249Y069085D02*
X014013Y069085D01*
X014013Y069324D02*
X018011Y069324D01*
X017774Y069562D02*
X014013Y069562D01*
X013453Y069515D02*
X013453Y068590D01*
X013453Y069515D02*
X011024Y069515D01*
X011020Y069511D01*
X009264Y071744D02*
X008260Y071744D01*
X008178Y071661D01*
X007488Y071709D02*
X006699Y071709D01*
X006732Y071676D02*
X006516Y071893D01*
X006280Y072128D01*
X006356Y072128D01*
X006599Y072371D01*
X006842Y072128D01*
X007356Y072128D01*
X007488Y072260D01*
X007488Y067752D01*
X007295Y067945D01*
X007079Y067945D01*
X006864Y067945D01*
X006849Y067930D01*
X006849Y071393D01*
X006732Y071676D01*
X006817Y071470D02*
X007488Y071470D01*
X007488Y071232D02*
X006849Y071232D01*
X006849Y070993D02*
X007488Y070993D01*
X007488Y070755D02*
X006849Y070755D01*
X006849Y070516D02*
X007488Y070516D01*
X007488Y070278D02*
X006849Y070278D01*
X006849Y070039D02*
X007488Y070039D01*
X007488Y069801D02*
X006849Y069801D01*
X006849Y069562D02*
X007488Y069562D01*
X007488Y069324D02*
X006849Y069324D01*
X006849Y069085D02*
X007488Y069085D01*
X007488Y068847D02*
X006849Y068847D01*
X006849Y068608D02*
X007488Y068608D01*
X007488Y068370D02*
X006849Y068370D01*
X006849Y068131D02*
X007488Y068131D01*
X007488Y067893D02*
X007347Y067893D01*
X007079Y067893D02*
X007079Y067893D01*
X007079Y067945D02*
X007079Y067425D01*
X007079Y067425D01*
X007079Y067425D01*
X007079Y066425D01*
X007079Y066425D01*
X007079Y066425D01*
X007079Y065425D01*
X007079Y065425D01*
X007079Y065905D01*
X007079Y066425D01*
X007079Y066905D01*
X007079Y067425D01*
X007079Y067945D01*
X007079Y067654D02*
X007079Y067654D01*
X007079Y067416D02*
X007079Y067416D01*
X007079Y067177D02*
X007079Y067177D01*
X007079Y066939D02*
X007079Y066939D01*
X007079Y066700D02*
X007079Y066700D01*
X007079Y066462D02*
X007079Y066462D01*
X007079Y066223D02*
X007079Y066223D01*
X007079Y065985D02*
X007079Y065985D01*
X007079Y065746D02*
X007079Y065746D01*
X007079Y065508D02*
X007079Y065508D01*
X009818Y063361D02*
X013752Y063361D01*
X013764Y063600D02*
X010052Y063600D01*
X010153Y063838D02*
X013752Y063838D01*
X013755Y064077D02*
X010153Y064077D01*
X010153Y064315D02*
X013752Y064315D01*
X013752Y064554D02*
X010153Y064554D01*
X010153Y064792D02*
X013752Y064792D01*
X013752Y065031D02*
X010153Y065031D01*
X010153Y065269D02*
X013752Y065269D01*
X013752Y065508D02*
X010153Y065508D01*
X010153Y065746D02*
X013852Y065746D01*
X014472Y065985D02*
X014472Y065985D01*
X014472Y066223D02*
X014472Y066223D01*
X014910Y066223D02*
X016257Y066223D01*
X016172Y065985D02*
X015092Y065985D01*
X015821Y065746D02*
X016115Y065746D01*
X016052Y065508D02*
X015980Y065508D01*
X015999Y065269D02*
X016052Y065269D01*
X016104Y065031D02*
X015874Y065031D01*
X015791Y064792D02*
X016172Y064792D01*
X016172Y064554D02*
X015967Y064554D01*
X015999Y064315D02*
X016172Y064315D01*
X016175Y064077D02*
X015905Y064077D01*
X015763Y063838D02*
X016172Y063838D01*
X016184Y063600D02*
X015938Y063600D01*
X015999Y063361D02*
X016172Y063361D01*
X015964Y063123D02*
X015944Y063123D01*
X015259Y061930D02*
X014947Y061930D01*
X015345Y061692D02*
X011137Y061692D01*
X011142Y061453D02*
X015515Y061453D01*
X016004Y061215D02*
X011148Y061215D01*
X011155Y060976D02*
X016072Y060976D01*
X016270Y060738D02*
X015774Y060738D01*
X015438Y060370D02*
X015438Y059401D01*
X015973Y058866D01*
X020816Y058866D01*
X021249Y058433D01*
X020855Y058078D02*
X021091Y057842D01*
X020855Y058078D02*
X020619Y058078D01*
X020304Y057763D01*
X020304Y056740D01*
X020107Y056543D01*
X015658Y056543D01*
X015422Y056307D01*
X015218Y056762D02*
X014462Y057518D01*
X014349Y057630D01*
X014202Y057691D01*
X010706Y057691D01*
X010126Y058271D01*
X010140Y058306D01*
X010140Y058536D01*
X010087Y058663D01*
X014478Y058663D01*
X014625Y058724D01*
X014737Y058836D01*
X015061Y059160D01*
X015065Y059152D01*
X015600Y058617D01*
X015724Y058493D01*
X015886Y058426D01*
X020344Y058426D01*
X020246Y058328D01*
X019931Y058013D01*
X019864Y057851D01*
X019864Y056983D01*
X015571Y056983D01*
X015409Y056916D01*
X015285Y056792D01*
X015281Y056788D01*
X015218Y056762D01*
X015058Y056922D02*
X015423Y056922D01*
X014819Y057160D02*
X019864Y057160D01*
X019864Y057399D02*
X014581Y057399D01*
X014332Y057637D02*
X019864Y057637D01*
X019874Y057876D02*
X010521Y057876D01*
X010282Y058114D02*
X020032Y058114D01*
X020271Y058353D02*
X010140Y058353D01*
X010117Y058591D02*
X015625Y058591D01*
X015387Y058830D02*
X014731Y058830D01*
X014970Y059068D02*
X015148Y059068D01*
X015934Y059614D02*
X015934Y060086D01*
X015934Y059614D02*
X016170Y059378D01*
X020619Y059378D01*
X021052Y059378D01*
X022138Y058291D01*
X022587Y058740D01*
X022587Y059299D01*
X022823Y059535D01*
X023414Y059535D01*
X023729Y059220D01*
X023729Y058748D01*
X023886Y058590D01*
X024753Y058590D01*
X026760Y058590D01*
X026760Y057173D02*
X029477Y057173D01*
X030776Y055874D01*
X030426Y055491D02*
X027786Y055491D01*
X027711Y055729D02*
X030275Y055729D01*
X030060Y055968D02*
X027949Y055968D01*
X027981Y056622D02*
X028532Y056622D01*
X029020Y056445D02*
X029583Y056445D01*
X029344Y056683D02*
X029050Y056683D01*
X028849Y056206D02*
X029821Y056206D01*
X031126Y055491D02*
X031202Y055491D01*
X032101Y059545D02*
X032229Y059545D01*
X033103Y059545D02*
X033213Y059545D01*
X033002Y060140D02*
X033002Y060490D01*
X033002Y060490D01*
X033002Y060140D01*
X033002Y060261D02*
X033002Y060261D01*
X033002Y060499D02*
X033002Y060499D01*
X033622Y060499D02*
X035494Y060499D01*
X035494Y060261D02*
X033599Y060261D01*
X033698Y060738D02*
X035494Y060738D01*
X035494Y060976D02*
X033722Y060976D01*
X033709Y061215D02*
X035494Y061215D01*
X035494Y061453D02*
X033722Y061453D01*
X033719Y061692D02*
X035494Y061692D01*
X035494Y061930D02*
X033722Y061930D01*
X033722Y062169D02*
X035494Y062169D01*
X035494Y062407D02*
X033722Y062407D01*
X033722Y062646D02*
X035494Y062646D01*
X035494Y062884D02*
X033722Y062884D01*
X033722Y063123D02*
X035494Y063123D01*
X035572Y063361D02*
X033722Y063361D01*
X033722Y063600D02*
X035811Y063600D01*
X036049Y063838D02*
X033722Y063838D01*
X033722Y064077D02*
X036288Y064077D01*
X036526Y064315D02*
X033659Y064315D01*
X032464Y066939D02*
X036823Y066939D01*
X037061Y066700D02*
X032225Y066700D01*
X031987Y066462D02*
X037300Y066462D01*
X036584Y067177D02*
X032702Y067177D01*
X032941Y067416D02*
X036346Y067416D01*
X036242Y067654D02*
X035024Y067654D01*
X035429Y067893D02*
X036242Y067893D01*
X036242Y068131D02*
X035904Y068131D01*
X035619Y068551D02*
X035225Y068945D01*
X032666Y068945D01*
X030186Y066464D01*
X030146Y066464D01*
X030136Y066454D01*
X025451Y066454D01*
X024953Y066462D02*
X023578Y066462D01*
X023578Y066700D02*
X025014Y066700D01*
X025029Y066737D02*
X024953Y066554D01*
X024953Y066355D01*
X025029Y066172D01*
X025169Y066032D01*
X025317Y065971D01*
X025317Y065930D01*
X025175Y065871D01*
X025035Y065731D01*
X024959Y065548D01*
X024959Y065349D01*
X025035Y065166D01*
X025175Y065026D01*
X025317Y064967D01*
X025317Y064830D01*
X025393Y064646D01*
X025533Y064506D01*
X025716Y064430D01*
X025915Y064430D01*
X026056Y064489D01*
X026756Y064489D01*
X026898Y064430D01*
X027096Y064430D01*
X027279Y064506D01*
X027419Y064646D01*
X027495Y064830D01*
X027495Y065028D01*
X027490Y065040D01*
X028808Y065040D01*
X027641Y063873D01*
X023780Y063873D01*
X023967Y064060D01*
X023967Y064060D01*
X024125Y064218D01*
X024210Y064424D01*
X024210Y065137D01*
X024269Y065278D01*
X024269Y065524D01*
X024174Y065752D01*
X024001Y065926D01*
X023773Y066020D01*
X023578Y066020D01*
X023578Y067575D01*
X023562Y067616D01*
X023602Y067599D01*
X028187Y067599D01*
X028348Y067666D01*
X030053Y069371D01*
X031879Y069371D01*
X029909Y067400D01*
X026036Y067400D01*
X025895Y067459D01*
X025697Y067459D01*
X025514Y067383D01*
X025373Y067243D01*
X025297Y067059D01*
X025297Y066930D01*
X025169Y066877D01*
X025029Y066737D01*
X025297Y066939D02*
X023578Y066939D01*
X023578Y067177D02*
X025346Y067177D01*
X025593Y067416D02*
X023578Y067416D01*
X023138Y067488D02*
X023138Y064968D01*
X023650Y064535D02*
X023099Y063984D01*
X022351Y063984D01*
X022351Y064496D01*
X021672Y064496D01*
X021603Y063433D02*
X027823Y063433D01*
X029398Y065008D01*
X028799Y065031D02*
X027494Y065031D01*
X027480Y064792D02*
X028561Y064792D01*
X028322Y064554D02*
X027327Y064554D01*
X026997Y064929D02*
X025816Y064929D01*
X025486Y064554D02*
X024210Y064554D01*
X024210Y064792D02*
X025333Y064792D01*
X025170Y065031D02*
X024210Y065031D01*
X024265Y065269D02*
X024992Y065269D01*
X024959Y065508D02*
X024269Y065508D01*
X024177Y065746D02*
X025050Y065746D01*
X025283Y065985D02*
X023857Y065985D01*
X023578Y066223D02*
X025008Y066223D01*
X025457Y065448D02*
X026217Y065448D01*
X026249Y065480D01*
X030383Y065480D01*
X033060Y068157D01*
X034359Y068157D01*
X034595Y067921D01*
X034166Y067654D02*
X033179Y067654D01*
X032863Y068551D02*
X034831Y068551D01*
X035107Y068275D01*
X036091Y068826D02*
X035579Y069338D01*
X032469Y069338D01*
X030091Y066960D01*
X025796Y066960D01*
X025999Y067416D02*
X029924Y067416D01*
X030163Y067654D02*
X028320Y067654D01*
X028575Y067893D02*
X030401Y067893D01*
X030640Y068131D02*
X028814Y068131D01*
X029052Y068370D02*
X030878Y068370D01*
X031117Y068608D02*
X029291Y068608D01*
X029529Y068847D02*
X031355Y068847D01*
X031594Y069085D02*
X029768Y069085D01*
X030006Y069324D02*
X031832Y069324D01*
X032173Y070533D02*
X032371Y070533D01*
X032555Y070609D01*
X032695Y070749D01*
X032709Y070783D01*
X032855Y070783D01*
X032990Y070648D01*
X033173Y070572D01*
X033371Y070572D01*
X033555Y070648D01*
X033676Y070769D01*
X033867Y070769D01*
X034051Y070845D01*
X034191Y070985D01*
X034191Y070985D01*
X036242Y070985D01*
X036242Y069303D01*
X036232Y069307D01*
X035829Y069711D01*
X035667Y069778D01*
X034267Y069778D01*
X034267Y069910D01*
X034191Y070093D01*
X034051Y070233D01*
X033867Y070309D01*
X033669Y070309D01*
X033528Y070251D01*
X030168Y070251D01*
X031627Y071710D01*
X031688Y071857D01*
X031688Y072352D01*
X031727Y072391D01*
X031748Y072442D01*
X031864Y072442D01*
X032054Y072521D01*
X032200Y072667D01*
X032279Y072857D01*
X032279Y073063D01*
X032200Y073254D01*
X032087Y073366D01*
X032121Y073448D01*
X032121Y073654D01*
X032042Y073844D01*
X031896Y073990D01*
X031706Y074069D01*
X031500Y074069D01*
X031311Y073991D01*
X030610Y073991D01*
X030448Y073924D01*
X029293Y072769D01*
X029105Y072691D01*
X028959Y072545D01*
X028880Y072355D01*
X028880Y072149D01*
X028959Y071958D01*
X029105Y071812D01*
X029295Y071734D01*
X029501Y071734D01*
X029692Y071812D01*
X029837Y071958D01*
X029916Y072147D01*
X030376Y072607D01*
X030376Y072102D01*
X027658Y069384D01*
X027153Y069384D01*
X028066Y070297D01*
X028114Y070277D01*
X028320Y070277D01*
X028511Y070356D01*
X028656Y070501D01*
X028735Y070692D01*
X028735Y070749D01*
X028793Y070749D01*
X028983Y070828D01*
X029129Y070974D01*
X029208Y071164D01*
X029208Y071370D01*
X029129Y071561D01*
X028983Y071707D01*
X028793Y071785D01*
X028587Y071785D01*
X028398Y071707D01*
X027736Y071707D01*
X027574Y071640D01*
X027450Y071517D01*
X027242Y071308D01*
X027242Y073247D01*
X027277Y073247D01*
X027504Y073342D01*
X027678Y073516D01*
X027773Y073743D01*
X027773Y073989D01*
X027678Y074216D01*
X027504Y074390D01*
X027277Y074484D01*
X027031Y074484D01*
X026890Y074426D01*
X026570Y074426D01*
X026365Y074341D01*
X026207Y074183D01*
X026122Y073977D01*
X026122Y073911D01*
X026067Y073911D01*
X025876Y073833D01*
X025799Y073755D01*
X025772Y073763D01*
X025613Y073763D01*
X025613Y073143D01*
X025613Y073143D01*
X025713Y073143D01*
X025713Y073143D01*
X025613Y073143D01*
X025613Y073143D01*
X025613Y073763D01*
X025475Y073763D01*
X025424Y073814D01*
X025306Y073863D01*
X024919Y073863D01*
X024863Y073839D01*
X024806Y073863D01*
X024419Y073863D01*
X024363Y073839D01*
X024306Y073863D01*
X023919Y073863D01*
X023863Y073839D01*
X023806Y073863D01*
X023419Y073863D01*
X023363Y073839D01*
X023306Y073863D01*
X022919Y073863D01*
X022863Y073839D01*
X022806Y073863D01*
X022419Y073863D01*
X022363Y073839D01*
X022306Y073863D01*
X021919Y073863D01*
X021802Y073814D01*
X021712Y073724D01*
X021663Y073606D01*
X021663Y072679D01*
X021707Y072573D01*
X021707Y072497D01*
X021684Y072475D01*
X021627Y072337D01*
X021496Y072337D01*
X021313Y072261D01*
X021173Y072121D01*
X021097Y071937D01*
X021097Y071739D01*
X021155Y071598D01*
X021155Y071534D01*
X021222Y071372D01*
X021225Y071369D01*
X021204Y071369D01*
X021148Y071354D01*
X021098Y071325D01*
X021057Y071284D01*
X021028Y071234D01*
X021013Y071178D01*
X021013Y070943D01*
X021445Y070943D01*
X021445Y070943D01*
X021013Y070943D01*
X021013Y070845D01*
X020984Y070833D01*
X020941Y070790D01*
X020941Y073880D01*
X021785Y074725D01*
X025391Y074725D01*
X025553Y074792D01*
X025677Y074916D01*
X025760Y074999D01*
X025876Y074883D01*
X026065Y074805D01*
X026118Y074753D01*
X026279Y074686D01*
X028856Y074686D01*
X029018Y074753D01*
X030053Y075788D01*
X034210Y075788D01*
X034372Y075855D01*
X034884Y076367D01*
X035007Y076491D01*
X035022Y076525D01*
X035022Y075329D01*
X034267Y075329D01*
X034267Y075382D01*
X034191Y075565D01*
X034051Y075706D01*
X033867Y075782D01*
X033669Y075782D01*
X033486Y075706D01*
X033346Y075565D01*
X033308Y075474D01*
X033223Y075474D01*
X033187Y075562D01*
X033047Y075702D01*
X032864Y075778D01*
X032665Y075778D01*
X032482Y075702D01*
X032342Y075562D01*
X032303Y075467D01*
X032173Y075467D01*
X031990Y075391D01*
X031850Y075251D01*
X031774Y075067D01*
X031774Y074869D01*
X031850Y074686D01*
X031872Y074663D01*
X031872Y074141D01*
X031933Y073994D01*
X032169Y073757D01*
X032282Y073645D01*
X032429Y073584D01*
X035856Y073584D01*
X036003Y073645D01*
X036282Y073924D01*
X036282Y072730D01*
X032705Y072730D01*
X032558Y072669D01*
X032445Y072557D01*
X031933Y072045D01*
X031872Y071898D01*
X031872Y071336D01*
X031850Y071314D01*
X031774Y071130D01*
X031774Y070932D01*
X031850Y070749D01*
X031990Y070609D01*
X032173Y070533D01*
X031847Y070755D02*
X030672Y070755D01*
X030910Y070993D02*
X031774Y070993D01*
X031816Y071232D02*
X031149Y071232D01*
X031387Y071470D02*
X031872Y071470D01*
X031872Y071709D02*
X031626Y071709D01*
X031688Y071947D02*
X031893Y071947D01*
X032074Y072186D02*
X031688Y072186D01*
X031741Y072424D02*
X032312Y072424D01*
X032196Y072663D02*
X032551Y072663D01*
X032279Y072901D02*
X036282Y072901D01*
X036282Y073140D02*
X032247Y073140D01*
X032092Y073378D02*
X036282Y073378D01*
X036282Y073617D02*
X035935Y073617D01*
X036213Y073855D02*
X036282Y073855D01*
X035022Y075525D02*
X034208Y075525D01*
X033912Y075763D02*
X035022Y075763D01*
X035022Y076002D02*
X034519Y076002D01*
X034757Y076240D02*
X035022Y076240D01*
X035022Y076479D02*
X034996Y076479D01*
X034634Y076740D02*
X034634Y080716D01*
X034044Y081307D01*
X031760Y081307D01*
X031249Y080795D01*
X029792Y080795D01*
X029438Y080519D01*
X029438Y079929D01*
X029989Y079378D01*
X030639Y079378D01*
X030885Y079368D01*
X030885Y078868D02*
X028845Y078868D01*
X028729Y078905D01*
X029059Y079308D02*
X029022Y079344D01*
X028832Y079423D01*
X028657Y079423D01*
X028657Y079780D01*
X028590Y079942D01*
X027921Y080611D01*
X027797Y080735D01*
X027635Y080802D01*
X024699Y080802D01*
X023774Y081727D01*
X023696Y081915D01*
X023550Y082061D01*
X023360Y082140D01*
X023153Y082140D01*
X022963Y082061D01*
X022817Y081915D01*
X022738Y081725D01*
X022738Y081608D01*
X022690Y081628D01*
X022484Y081628D01*
X022437Y081608D01*
X022437Y081676D01*
X023754Y082993D01*
X025431Y082993D01*
X025592Y083060D01*
X025716Y083184D01*
X026023Y083491D01*
X026090Y083652D01*
X026090Y083736D01*
X026340Y083986D01*
X026340Y084557D01*
X026126Y084771D01*
X026340Y084986D01*
X026340Y085557D01*
X025936Y085961D01*
X025364Y085961D01*
X025150Y085747D01*
X024936Y085961D01*
X024854Y085961D01*
X024102Y086713D01*
X024102Y086713D01*
X023978Y086837D01*
X023816Y086904D01*
X021188Y086904D01*
X021432Y087148D01*
X021571Y087484D01*
X021571Y087847D01*
X021464Y088105D01*
X021495Y088136D01*
X022150Y088136D01*
X022136Y088123D01*
X022081Y088051D01*
X022036Y087972D01*
X022001Y087888D01*
X021978Y087800D01*
X021966Y087710D01*
X021966Y087703D01*
X022621Y087703D01*
X022621Y087628D01*
X021966Y087628D01*
X021966Y087620D01*
X021978Y087530D01*
X022001Y087442D01*
X022036Y087358D01*
X022081Y087280D01*
X022136Y087207D01*
X022201Y087143D01*
X022273Y087088D01*
X022351Y087043D01*
X022435Y087008D01*
X022523Y086984D01*
X022613Y086973D01*
X022621Y086973D01*
X022696Y086973D01*
X022703Y086973D01*
X022793Y086984D01*
X022881Y087008D01*
X022965Y087043D01*
X023044Y087088D01*
X023116Y087143D01*
X023180Y087207D01*
X023235Y087280D01*
X023280Y087358D01*
X023315Y087442D01*
X023339Y087530D01*
X023351Y087620D01*
X023351Y087628D01*
X022696Y087628D01*
X022696Y087703D01*
X023351Y087703D01*
X023351Y087710D01*
X023339Y087800D01*
X023315Y087888D01*
X023280Y087972D01*
X023235Y088051D01*
X023180Y088123D01*
X023166Y088136D01*
X024158Y088136D01*
X024144Y088123D01*
X024089Y088051D01*
X024044Y087972D01*
X024009Y087888D01*
X023985Y087800D01*
X023974Y087710D01*
X023974Y087703D01*
X024628Y087703D01*
X024628Y087628D01*
X023974Y087628D01*
X023974Y087620D01*
X023985Y087530D01*
X024009Y087442D01*
X024044Y087358D01*
X024089Y087280D01*
X024144Y087207D01*
X024208Y087143D01*
X024280Y087088D01*
X024359Y087043D01*
X024443Y087008D01*
X024531Y086984D01*
X024621Y086973D01*
X024628Y086973D01*
X024703Y086973D01*
X024711Y086973D01*
X024801Y086984D01*
X024889Y087008D01*
X024973Y087043D01*
X025051Y087088D01*
X025124Y087143D01*
X025188Y087207D01*
X025243Y087280D01*
X025288Y087358D01*
X025323Y087442D01*
X025347Y087530D01*
X025358Y087620D01*
X025358Y087628D01*
X024703Y087628D01*
X024703Y087703D01*
X025358Y087703D01*
X025358Y087710D01*
X025347Y087800D01*
X025323Y087888D01*
X025288Y087972D01*
X025243Y088051D01*
X025188Y088123D01*
X025174Y088136D01*
X025875Y088136D01*
X025750Y087835D01*
X025750Y087472D01*
X025889Y087136D01*
X026145Y086880D01*
X026481Y086741D01*
X026844Y086741D01*
X027179Y086880D01*
X027436Y087136D01*
X027574Y087472D01*
X027574Y087835D01*
X027436Y088170D01*
X027352Y088254D01*
X027352Y088629D01*
X027247Y088883D01*
X027053Y089077D01*
X026718Y089411D01*
X026465Y089516D01*
X021072Y089516D01*
X020818Y089411D01*
X020267Y088860D01*
X020073Y088666D01*
X019968Y088413D01*
X019968Y088265D01*
X019885Y088182D01*
X019746Y087847D01*
X019746Y087484D01*
X019885Y087148D01*
X020141Y086891D01*
X020341Y086809D01*
X019621Y086089D01*
X019595Y086063D01*
X019588Y086060D01*
X019448Y085920D01*
X019372Y085737D01*
X019372Y085538D01*
X019448Y085355D01*
X019588Y085215D01*
X019772Y085139D01*
X019970Y085139D01*
X020153Y085215D01*
X020274Y085335D01*
X020314Y085237D01*
X020455Y085097D01*
X020638Y085021D01*
X020836Y085021D01*
X021019Y085097D01*
X021060Y085138D01*
X021060Y085027D01*
X021160Y084927D01*
X021065Y084831D01*
X019023Y084831D01*
X018817Y084746D01*
X018660Y084589D01*
X017979Y083907D01*
X017893Y083702D01*
X017893Y081419D01*
X017769Y081471D01*
X017563Y081471D01*
X017372Y081392D01*
X017227Y081246D01*
X017163Y081091D01*
X017135Y081091D01*
X017111Y081101D01*
X016336Y081101D01*
X016336Y082802D01*
X016414Y082991D01*
X016414Y083245D01*
X016317Y083479D01*
X016138Y083659D01*
X015903Y083756D01*
X015649Y083756D01*
X015415Y083659D01*
X015235Y083479D01*
X015138Y083245D01*
X015138Y082991D01*
X015216Y082802D01*
X015216Y082072D01*
X015199Y082089D01*
X015037Y082156D01*
X014449Y082156D01*
X014287Y082089D01*
X014163Y081965D01*
X014151Y081936D01*
X014054Y081936D01*
X014054Y081504D01*
X014054Y081504D01*
X014054Y081936D01*
X013895Y081936D01*
X013895Y086936D01*
X013973Y087125D01*
X013973Y087379D01*
X013876Y087613D01*
X013697Y087793D01*
X013462Y087890D01*
X013208Y087890D01*
X012974Y087793D01*
X012794Y087613D01*
X012697Y087379D01*
X012697Y087125D01*
X012775Y086936D01*
X012775Y081216D01*
X012716Y081156D01*
X012618Y080922D01*
X012618Y080668D01*
X012716Y080433D01*
X012895Y080254D01*
X013130Y080157D01*
X013383Y080157D01*
X013508Y080208D01*
X013508Y079958D01*
X013531Y079901D01*
X013508Y079845D01*
X013508Y079458D01*
X013531Y079401D01*
X013508Y079345D01*
X013508Y078958D01*
X013531Y078901D01*
X013508Y078845D01*
X013508Y078458D01*
X013531Y078401D01*
X013508Y078345D01*
X013508Y077958D01*
X013531Y077901D01*
X013508Y077845D01*
X013508Y077458D01*
X013531Y077401D01*
X013508Y077345D01*
X013508Y076958D01*
X013523Y076921D01*
X010822Y079622D01*
X010822Y080646D01*
X010783Y080740D01*
X010941Y080805D01*
X011120Y080985D01*
X011217Y081219D01*
X011217Y081473D01*
X011120Y081708D01*
X011099Y081729D01*
X011099Y082398D01*
X012114Y082398D01*
X012379Y082507D01*
X012581Y082710D01*
X012691Y082975D01*
X012691Y083261D01*
X012677Y083294D01*
X012677Y087710D01*
X012611Y087870D01*
X012611Y088403D01*
X012571Y088499D01*
X012571Y088618D01*
X012490Y088814D01*
X012340Y088964D01*
X012144Y089045D01*
X011798Y089045D01*
X011602Y088964D01*
X011563Y088925D01*
X011322Y088925D01*
X011170Y088862D01*
X011153Y088845D01*
X010345Y088845D01*
X010345Y089881D01*
X016009Y089881D01*
X016009Y087955D01*
X016076Y087793D01*
X016199Y087669D01*
X016361Y087602D01*
X017396Y087602D01*
X017558Y087669D01*
X017682Y087793D01*
X017749Y087955D01*
X017749Y089881D01*
X041603Y089881D01*
X041369Y089747D01*
X041155Y089533D01*
X041004Y089270D01*
X040925Y088978D01*
X040925Y088675D01*
X041004Y088383D01*
X041155Y088120D01*
X041369Y087906D01*
X041632Y087755D01*
X041924Y087677D01*
X042227Y087677D01*
X042519Y087755D01*
X042781Y087906D01*
X042996Y088120D01*
X043130Y088354D01*
X043130Y073400D01*
X043111Y073420D01*
X043111Y073448D01*
X043091Y073468D01*
X043091Y073815D01*
X043111Y073835D01*
X043111Y074448D01*
X043091Y074468D01*
X043091Y074815D01*
X043111Y074835D01*
X043111Y075448D01*
X042832Y075726D01*
X042991Y075885D01*
X042991Y076398D01*
X042748Y076641D01*
X042991Y076885D01*
X042991Y077398D01*
X042748Y077641D01*
X042991Y077885D01*
X042991Y078398D01*
X042748Y078641D01*
X042991Y078885D01*
X042991Y079398D01*
X042748Y079641D01*
X042991Y079885D01*
X042991Y080398D01*
X042748Y080641D01*
X042991Y080885D01*
X042991Y081398D01*
X042748Y081641D01*
X042991Y081885D01*
X042991Y082398D01*
X042748Y082641D01*
X042991Y082885D01*
X042991Y083398D01*
X042748Y083641D01*
X042991Y083885D01*
X042991Y084398D01*
X042748Y084641D01*
X042991Y084885D01*
X042991Y085398D01*
X042628Y085761D01*
X042114Y085761D01*
X041871Y085518D01*
X041628Y085761D01*
X041114Y085761D01*
X041023Y085670D01*
X041023Y086592D01*
X040925Y086827D01*
X040745Y087007D01*
X040510Y087104D01*
X038090Y087104D01*
X037855Y087007D01*
X037675Y086827D01*
X037595Y086634D01*
X036798Y085837D01*
X036712Y085631D01*
X036712Y085402D01*
X036634Y085213D01*
X036634Y084959D01*
X036712Y084771D01*
X036712Y084701D01*
X033066Y084701D01*
X032861Y084616D01*
X030752Y082507D01*
X030744Y082515D01*
X030744Y082670D01*
X030677Y082832D01*
X030553Y082955D01*
X030391Y083022D01*
X029803Y083022D01*
X029641Y082955D01*
X029517Y082832D01*
X029505Y082802D01*
X029408Y082802D01*
X029172Y082802D01*
X029116Y082787D01*
X029066Y082758D01*
X029051Y082743D01*
X029051Y084465D01*
X028984Y084627D01*
X028423Y085188D01*
X028364Y085329D01*
X028224Y085469D01*
X028041Y085545D01*
X027842Y085545D01*
X027659Y085469D01*
X027519Y085329D01*
X027443Y085146D01*
X027443Y084948D01*
X027519Y084765D01*
X027659Y084624D01*
X027714Y084602D01*
X027557Y084536D01*
X027417Y084396D01*
X027341Y084213D01*
X027341Y084015D01*
X027417Y083832D01*
X027557Y083691D01*
X027620Y083665D01*
X027620Y081598D01*
X027542Y081410D01*
X027542Y081204D01*
X027620Y081013D01*
X027766Y080868D01*
X027957Y080789D01*
X028163Y080789D01*
X028353Y080868D01*
X028499Y081013D01*
X028569Y081182D01*
X028714Y081182D01*
X028904Y081261D01*
X029050Y081407D01*
X029129Y081597D01*
X029129Y081804D01*
X029051Y081992D01*
X029051Y081997D01*
X029066Y081981D01*
X029116Y081952D01*
X029172Y081937D01*
X029408Y081937D01*
X029408Y082370D01*
X029408Y082802D01*
X029408Y082370D01*
X029408Y082370D01*
X029408Y082370D01*
X029408Y081937D01*
X029505Y081937D01*
X029517Y081908D01*
X029641Y081784D01*
X029803Y081717D01*
X029823Y081717D01*
X029823Y081662D01*
X029744Y081473D01*
X029744Y081238D01*
X029733Y081235D01*
X029704Y081235D01*
X029649Y081212D01*
X029591Y081196D01*
X029569Y081179D01*
X029543Y081168D01*
X029500Y081125D01*
X029214Y080903D01*
X029188Y080892D01*
X029146Y080850D01*
X029098Y080813D01*
X029085Y080788D01*
X029065Y080769D01*
X029042Y080713D01*
X029012Y080661D01*
X029008Y080633D01*
X028998Y080607D01*
X028998Y080547D01*
X028990Y080487D01*
X028998Y080460D01*
X028998Y079841D01*
X029065Y079680D01*
X029436Y079308D01*
X029059Y079308D01*
X029026Y079341D02*
X029403Y079341D01*
X029165Y079579D02*
X028657Y079579D01*
X028642Y079818D02*
X029007Y079818D01*
X028998Y080056D02*
X028476Y080056D01*
X028237Y080295D02*
X028998Y080295D01*
X028996Y080533D02*
X027999Y080533D01*
X027708Y080772D02*
X029068Y080772D01*
X029352Y081010D02*
X028496Y081010D01*
X028874Y081249D02*
X029744Y081249D01*
X029750Y081487D02*
X029083Y081487D01*
X029129Y081726D02*
X029782Y081726D01*
X029408Y081964D02*
X029408Y081964D01*
X029408Y082203D02*
X029408Y082203D01*
X029408Y082441D02*
X029408Y082441D01*
X029408Y082680D02*
X029408Y082680D01*
X029604Y082918D02*
X029051Y082918D01*
X029051Y083157D02*
X031401Y083157D01*
X031163Y082918D02*
X030590Y082918D01*
X030740Y082680D02*
X030924Y082680D01*
X030383Y082084D02*
X030383Y081346D01*
X033178Y084141D01*
X037036Y084141D01*
X037272Y084378D01*
X037272Y085086D01*
X037272Y085519D01*
X038217Y086464D01*
X037636Y086734D02*
X024081Y086734D01*
X024320Y086496D02*
X037457Y086496D01*
X037218Y086257D02*
X024558Y086257D01*
X024797Y086019D02*
X036980Y086019D01*
X036774Y085780D02*
X026117Y085780D01*
X026340Y085542D02*
X027834Y085542D01*
X028049Y085542D02*
X036712Y085542D01*
X036671Y085303D02*
X028375Y085303D01*
X028546Y085065D02*
X036634Y085065D01*
X036689Y084826D02*
X028784Y084826D01*
X029000Y084588D02*
X032832Y084588D01*
X032594Y084349D02*
X029051Y084349D01*
X029051Y084111D02*
X032355Y084111D01*
X032117Y083872D02*
X029051Y083872D01*
X029051Y083634D02*
X031878Y083634D01*
X031640Y083395D02*
X029051Y083395D01*
X028611Y084378D02*
X028611Y081700D01*
X029062Y081964D02*
X029095Y081964D01*
X030097Y082370D02*
X030383Y082084D01*
X031077Y081249D02*
X031080Y081249D01*
X031066Y081235D02*
X031387Y081556D01*
X031387Y081556D01*
X031511Y081680D01*
X031673Y081747D01*
X034131Y081747D01*
X034293Y081680D01*
X035007Y080965D01*
X035074Y080804D01*
X035074Y077675D01*
X035083Y077695D01*
X038298Y080910D01*
X038251Y081022D01*
X038251Y081253D01*
X038339Y081466D01*
X038503Y081629D01*
X038523Y081637D01*
X038503Y081646D01*
X038497Y081651D01*
X038086Y081239D01*
X038086Y081208D01*
X038010Y081024D01*
X037870Y080884D01*
X037686Y080808D01*
X037488Y080808D01*
X037305Y080884D01*
X037165Y081024D01*
X037124Y081123D01*
X037055Y081123D01*
X036872Y081199D01*
X036732Y081339D01*
X036691Y081438D01*
X036622Y081438D01*
X036439Y081514D01*
X036299Y081654D01*
X036258Y081753D01*
X036189Y081753D01*
X036006Y081829D01*
X035865Y081969D01*
X035790Y082152D01*
X035790Y082351D01*
X035865Y082534D01*
X036006Y082674D01*
X036189Y082750D01*
X036387Y082750D01*
X036437Y082730D01*
X037244Y083537D01*
X037163Y083503D01*
X036909Y083503D01*
X036721Y083581D01*
X033410Y083581D01*
X031063Y081235D01*
X031066Y081235D01*
X031316Y081487D02*
X031319Y081487D01*
X031554Y081726D02*
X031622Y081726D01*
X031793Y081964D02*
X035870Y081964D01*
X035790Y082203D02*
X032031Y082203D01*
X032270Y082441D02*
X035827Y082441D01*
X036019Y082680D02*
X032508Y082680D01*
X032747Y082918D02*
X036625Y082918D01*
X036864Y083157D02*
X032985Y083157D01*
X033224Y083395D02*
X037102Y083395D01*
X036269Y081726D02*
X034182Y081726D01*
X034486Y081487D02*
X036504Y081487D01*
X036822Y081249D02*
X034724Y081249D01*
X034963Y081010D02*
X037179Y081010D01*
X037996Y081010D02*
X038256Y081010D01*
X038251Y081249D02*
X038095Y081249D01*
X038333Y081487D02*
X038361Y081487D01*
X038160Y080772D02*
X035074Y080772D01*
X035074Y080533D02*
X037921Y080533D01*
X037683Y080295D02*
X035074Y080295D01*
X035074Y080056D02*
X037444Y080056D01*
X037206Y079818D02*
X035074Y079818D01*
X035074Y079579D02*
X036967Y079579D01*
X036729Y079341D02*
X035074Y079341D01*
X035074Y079102D02*
X036490Y079102D01*
X036252Y078864D02*
X035074Y078864D01*
X035074Y078625D02*
X036013Y078625D01*
X035775Y078387D02*
X035074Y078387D01*
X035074Y078148D02*
X035536Y078148D01*
X035298Y077910D02*
X035074Y077910D01*
X034634Y076740D02*
X034123Y076228D01*
X029871Y076228D01*
X028768Y075126D01*
X026367Y075126D01*
X026170Y075323D01*
X026055Y074809D02*
X025570Y074809D01*
X025304Y075165D02*
X025934Y075795D01*
X026524Y075795D01*
X026760Y075559D01*
X028532Y075559D01*
X029865Y076864D01*
X030885Y076868D01*
X030885Y077368D02*
X029711Y077368D01*
X028335Y075992D01*
X027075Y075992D01*
X026721Y076346D01*
X025776Y076346D01*
X019556Y076346D01*
X018375Y077527D01*
X018926Y077724D02*
X018926Y078078D01*
X018353Y078651D01*
X016648Y078651D01*
X016648Y078151D02*
X017306Y078151D01*
X017390Y078078D01*
X017863Y077015D02*
X019005Y075874D01*
X025264Y075874D01*
X025304Y075165D02*
X021603Y075165D01*
X020501Y074063D01*
X020501Y070126D01*
X023138Y067488D01*
X023690Y068039D02*
X023422Y068307D01*
X023052Y068307D01*
X023257Y068826D02*
X023650Y068826D01*
X023257Y068826D02*
X022115Y069968D01*
X022115Y070204D01*
X021495Y070204D01*
X021445Y070254D01*
X021013Y070993D02*
X020941Y070993D01*
X020941Y071232D02*
X021027Y071232D01*
X020941Y071470D02*
X021182Y071470D01*
X021109Y071709D02*
X020941Y071709D01*
X020941Y071947D02*
X021101Y071947D01*
X021238Y072186D02*
X020941Y072186D01*
X020941Y072424D02*
X021663Y072424D01*
X021670Y072663D02*
X020941Y072663D01*
X020941Y072901D02*
X021663Y072901D01*
X021663Y073140D02*
X020941Y073140D01*
X020941Y073378D02*
X021663Y073378D01*
X021667Y073617D02*
X020941Y073617D01*
X020941Y073855D02*
X021901Y073855D01*
X022324Y073855D02*
X022401Y073855D01*
X022824Y073855D02*
X022901Y073855D01*
X023324Y073855D02*
X023401Y073855D01*
X023824Y073855D02*
X023901Y073855D01*
X024324Y073855D02*
X024401Y073855D01*
X024824Y073855D02*
X024901Y073855D01*
X025324Y073855D02*
X025931Y073855D01*
X026170Y074094D02*
X021154Y074094D01*
X021392Y074332D02*
X026356Y074332D01*
X026682Y073866D02*
X027154Y073866D01*
X026682Y073866D02*
X026682Y070716D01*
X025973Y070008D01*
X025225Y070008D01*
X025113Y070120D01*
X025113Y070723D01*
X025613Y070723D02*
X026170Y071280D01*
X026170Y073393D01*
X025613Y073378D02*
X025613Y073378D01*
X025613Y073143D02*
X025613Y073143D01*
X025563Y073143D01*
X025563Y073143D01*
X025613Y073143D01*
X025613Y072523D01*
X025730Y072523D01*
X025730Y071462D01*
X025711Y071443D01*
X025545Y071443D01*
X025492Y071496D01*
X025330Y071563D01*
X024895Y071563D01*
X024734Y071496D01*
X024681Y071443D01*
X024419Y071443D01*
X024363Y071419D01*
X024306Y071443D01*
X023919Y071443D01*
X023863Y071419D01*
X023806Y071443D01*
X023419Y071443D01*
X023363Y071419D01*
X023306Y071443D01*
X023053Y071443D01*
X023053Y071487D01*
X022986Y071649D01*
X022904Y071731D01*
X022992Y071694D01*
X023190Y071694D01*
X023374Y071770D01*
X023514Y071910D01*
X023522Y071930D01*
X023684Y071930D01*
X023692Y071910D01*
X023832Y071770D01*
X024016Y071694D01*
X024214Y071694D01*
X024397Y071770D01*
X024537Y071910D01*
X024546Y071930D01*
X024708Y071930D01*
X024716Y071910D01*
X024856Y071770D01*
X025039Y071694D01*
X025238Y071694D01*
X025421Y071770D01*
X025561Y071910D01*
X025637Y072093D01*
X025637Y072292D01*
X025561Y072475D01*
X025538Y072497D01*
X025538Y072523D01*
X025613Y072523D01*
X025613Y073143D01*
X025613Y073143D01*
X025613Y073140D02*
X025613Y073140D01*
X025613Y072901D02*
X025613Y072901D01*
X025613Y072663D02*
X025613Y072663D01*
X025582Y072424D02*
X025730Y072424D01*
X025730Y072186D02*
X025637Y072186D01*
X025576Y071947D02*
X025730Y071947D01*
X025730Y071709D02*
X025273Y071709D01*
X025004Y071709D02*
X024249Y071709D01*
X023980Y071709D02*
X023226Y071709D01*
X022957Y071709D02*
X022926Y071709D01*
X023053Y071470D02*
X024708Y071470D01*
X024613Y070723D02*
X024613Y069872D01*
X024871Y069614D01*
X026170Y069614D01*
X027823Y071267D01*
X028690Y071267D01*
X029166Y071470D02*
X029744Y071470D01*
X029506Y071232D02*
X029208Y071232D01*
X029267Y070993D02*
X029137Y070993D01*
X029029Y070755D02*
X028806Y070755D01*
X028790Y070516D02*
X028663Y070516D01*
X028552Y070278D02*
X028323Y070278D01*
X028112Y070278D02*
X028047Y070278D01*
X027808Y070039D02*
X028313Y070039D01*
X028075Y069801D02*
X027570Y069801D01*
X027331Y069562D02*
X027836Y069562D01*
X028099Y068039D02*
X029871Y069811D01*
X033768Y069811D01*
X033594Y070278D02*
X030195Y070278D01*
X030433Y070516D02*
X036242Y070516D01*
X036242Y070278D02*
X033943Y070278D01*
X034213Y070039D02*
X036242Y070039D01*
X036242Y069801D02*
X034267Y069801D01*
X033661Y070755D02*
X036242Y070755D01*
X037357Y070793D02*
X037357Y071357D01*
X037590Y071124D01*
X037759Y070956D01*
X037980Y070864D01*
X039219Y070864D01*
X039311Y070826D01*
X039565Y070826D01*
X039743Y070900D01*
X039743Y068922D01*
X039737Y068935D01*
X039625Y069047D01*
X039507Y069166D01*
X039360Y069226D01*
X037357Y069226D01*
X037357Y069537D01*
X037382Y069527D01*
X037635Y069527D01*
X037824Y069605D01*
X038492Y069605D01*
X038681Y069527D01*
X038935Y069527D01*
X039169Y069624D01*
X039349Y069804D01*
X039446Y070038D01*
X039446Y070292D01*
X039349Y070526D01*
X039169Y070706D01*
X038935Y070803D01*
X038681Y070803D01*
X038492Y070725D01*
X037824Y070725D01*
X037635Y070803D01*
X037382Y070803D01*
X037357Y070793D01*
X037357Y070993D02*
X037721Y070993D01*
X037590Y071124D02*
X037590Y071124D01*
X037483Y071232D02*
X037357Y071232D01*
X037752Y070755D02*
X038564Y070755D01*
X039051Y070755D02*
X039743Y070755D01*
X039743Y070516D02*
X039353Y070516D01*
X039446Y070278D02*
X039743Y070278D01*
X039743Y070039D02*
X039446Y070039D01*
X039346Y069801D02*
X039743Y069801D01*
X039743Y069562D02*
X039020Y069562D01*
X038595Y069562D02*
X037721Y069562D01*
X037357Y069324D02*
X039743Y069324D01*
X039743Y069085D02*
X039587Y069085D01*
X038808Y070165D02*
X037508Y070165D01*
X036242Y069562D02*
X035978Y069562D01*
X036216Y069324D02*
X036242Y069324D01*
X037508Y068315D02*
X038142Y068315D01*
X038158Y068299D01*
X038158Y067212D01*
X038479Y066223D02*
X031748Y066223D01*
X031510Y065985D02*
X038196Y065985D01*
X037194Y068000D02*
X037508Y068315D01*
X038348Y072064D02*
X038108Y072303D01*
X038108Y075025D01*
X038131Y075080D01*
X038131Y074998D01*
X038238Y074741D01*
X038435Y074544D01*
X038692Y074437D01*
X039490Y074437D01*
X039743Y074542D01*
X039743Y072029D01*
X039565Y072102D01*
X039311Y072102D01*
X039219Y072064D01*
X038348Y072064D01*
X038226Y072186D02*
X039743Y072186D01*
X039743Y072424D02*
X038108Y072424D01*
X038108Y072663D02*
X039743Y072663D01*
X039743Y072901D02*
X038108Y072901D01*
X038108Y073140D02*
X039743Y073140D01*
X039743Y073378D02*
X038108Y073378D01*
X038108Y073617D02*
X039743Y073617D01*
X039743Y073855D02*
X038108Y073855D01*
X038108Y074094D02*
X039743Y074094D01*
X039743Y074332D02*
X038108Y074332D01*
X038108Y074571D02*
X038408Y074571D01*
X038209Y074809D02*
X038108Y074809D01*
X038118Y075048D02*
X038131Y075048D01*
X039091Y075137D02*
X039123Y075106D01*
X040284Y075106D01*
X040383Y075008D01*
X041371Y075048D02*
X041371Y075048D01*
X041371Y075141D02*
X041371Y074141D01*
X041371Y073141D01*
X041371Y072621D01*
X041586Y072621D01*
X041715Y072750D01*
X042064Y072401D01*
X042092Y072401D01*
X042458Y072036D01*
X042458Y068427D01*
X042106Y068427D01*
X041863Y068184D01*
X041620Y068427D01*
X041106Y068427D01*
X041023Y068343D01*
X041023Y072754D01*
X041155Y072621D01*
X041371Y072621D01*
X041371Y073141D01*
X041371Y073141D01*
X041371Y073141D01*
X041371Y073661D01*
X041371Y074141D01*
X041371Y074141D01*
X041371Y074141D01*
X041371Y074661D01*
X041371Y075141D01*
X041371Y075141D01*
X041371Y074809D02*
X041371Y074809D01*
X041371Y074571D02*
X041371Y074571D01*
X041371Y074332D02*
X041371Y074332D01*
X041371Y074094D02*
X041371Y074094D01*
X041371Y073855D02*
X041371Y073855D01*
X041371Y073617D02*
X041371Y073617D01*
X041371Y073378D02*
X041371Y073378D01*
X041371Y073140D02*
X041371Y073140D01*
X041371Y072901D02*
X041371Y072901D01*
X041371Y072663D02*
X041371Y072663D01*
X041627Y072663D02*
X041803Y072663D01*
X042041Y072424D02*
X041023Y072424D01*
X041023Y072186D02*
X042308Y072186D01*
X042458Y071947D02*
X041023Y071947D01*
X041023Y071709D02*
X042458Y071709D01*
X042458Y071470D02*
X041023Y071470D01*
X041023Y071232D02*
X042458Y071232D01*
X042458Y070993D02*
X041023Y070993D01*
X041023Y070755D02*
X042458Y070755D01*
X042458Y070516D02*
X041023Y070516D01*
X041023Y070278D02*
X042458Y070278D01*
X042458Y070039D02*
X041023Y070039D01*
X041023Y069801D02*
X042458Y069801D01*
X042458Y069562D02*
X041023Y069562D01*
X041023Y069324D02*
X042458Y069324D01*
X042458Y069085D02*
X041023Y069085D01*
X041023Y068847D02*
X042458Y068847D01*
X042458Y068608D02*
X041023Y068608D01*
X041023Y068370D02*
X041049Y068370D01*
X041677Y068370D02*
X042049Y068370D01*
X041114Y072663D02*
X041023Y072663D01*
X043091Y073617D02*
X043130Y073617D01*
X043111Y073855D02*
X043130Y073855D01*
X043111Y074094D02*
X043130Y074094D01*
X043111Y074332D02*
X043130Y074332D01*
X043130Y074571D02*
X043091Y074571D01*
X043091Y074809D02*
X043130Y074809D01*
X043111Y075048D02*
X043130Y075048D01*
X043111Y075286D02*
X043130Y075286D01*
X043130Y075525D02*
X043034Y075525D01*
X043130Y075763D02*
X042869Y075763D01*
X042991Y076002D02*
X043130Y076002D01*
X043130Y076240D02*
X042991Y076240D01*
X042910Y076479D02*
X043130Y076479D01*
X043130Y076717D02*
X042823Y076717D01*
X042991Y076956D02*
X043130Y076956D01*
X043130Y077194D02*
X042991Y077194D01*
X042956Y077433D02*
X043130Y077433D01*
X043130Y077671D02*
X042777Y077671D01*
X042991Y077910D02*
X043130Y077910D01*
X043130Y078148D02*
X042991Y078148D01*
X042991Y078387D02*
X043130Y078387D01*
X043130Y078625D02*
X042764Y078625D01*
X042970Y078864D02*
X043130Y078864D01*
X043130Y079102D02*
X042991Y079102D01*
X042991Y079341D02*
X043130Y079341D01*
X043130Y079579D02*
X042810Y079579D01*
X042924Y079818D02*
X043130Y079818D01*
X043130Y080056D02*
X042991Y080056D01*
X042991Y080295D02*
X043130Y080295D01*
X043130Y080533D02*
X042856Y080533D01*
X042878Y080772D02*
X043130Y080772D01*
X043130Y081010D02*
X042991Y081010D01*
X042991Y081249D02*
X043130Y081249D01*
X043130Y081487D02*
X042902Y081487D01*
X042832Y081726D02*
X043130Y081726D01*
X043130Y081964D02*
X042991Y081964D01*
X042991Y082203D02*
X043130Y082203D01*
X043130Y082441D02*
X042948Y082441D01*
X042786Y082680D02*
X043130Y082680D01*
X043130Y082918D02*
X042991Y082918D01*
X042991Y083157D02*
X043130Y083157D01*
X043130Y083395D02*
X042991Y083395D01*
X043130Y083634D02*
X042755Y083634D01*
X042978Y083872D02*
X043130Y083872D01*
X043130Y084111D02*
X042991Y084111D01*
X042991Y084349D02*
X043130Y084349D01*
X043130Y084588D02*
X042801Y084588D01*
X042932Y084826D02*
X043130Y084826D01*
X043130Y085065D02*
X042991Y085065D01*
X042991Y085303D02*
X043130Y085303D01*
X043130Y085542D02*
X042847Y085542D01*
X043130Y085780D02*
X041023Y085780D01*
X041023Y086019D02*
X043130Y086019D01*
X043130Y086257D02*
X041023Y086257D01*
X041023Y086496D02*
X043130Y086496D01*
X043130Y086734D02*
X040963Y086734D01*
X040779Y086973D02*
X043130Y086973D01*
X043130Y087211D02*
X027467Y087211D01*
X027565Y087450D02*
X043130Y087450D01*
X043130Y087688D02*
X042271Y087688D01*
X041880Y087688D02*
X027574Y087688D01*
X027536Y087927D02*
X041349Y087927D01*
X041129Y088165D02*
X027438Y088165D01*
X027352Y088404D02*
X040998Y088404D01*
X040934Y088642D02*
X027347Y088642D01*
X027248Y088881D02*
X040925Y088881D01*
X040963Y089119D02*
X027010Y089119D01*
X026772Y089358D02*
X041054Y089358D01*
X041219Y089596D02*
X017749Y089596D01*
X017749Y089358D02*
X020765Y089358D01*
X020526Y089119D02*
X017749Y089119D01*
X017749Y088881D02*
X020288Y088881D01*
X020063Y088642D02*
X017749Y088642D01*
X017749Y088404D02*
X019968Y088404D01*
X019878Y088165D02*
X017749Y088165D01*
X017737Y087927D02*
X019779Y087927D01*
X019746Y087688D02*
X017577Y087688D01*
X018493Y086307D02*
X018493Y085598D01*
X019280Y084811D01*
X021190Y084811D01*
X021650Y085271D01*
X021650Y084271D02*
X019134Y084271D01*
X018453Y083590D01*
X018453Y080362D01*
X018243Y080151D01*
X016648Y080151D01*
X016650Y079653D02*
X018965Y079653D01*
X019674Y078945D01*
X020776Y078945D01*
X021131Y079299D01*
X021131Y082173D01*
X022650Y083693D01*
X022650Y084271D01*
X023441Y082680D02*
X027620Y082680D01*
X027620Y082918D02*
X023679Y082918D01*
X023571Y083433D02*
X021997Y081858D01*
X021997Y078905D01*
X021170Y078078D01*
X018926Y078078D01*
X018926Y077724D02*
X019831Y076819D01*
X026288Y076819D01*
X026645Y077194D02*
X028746Y077194D01*
X028793Y077324D02*
X028934Y077383D01*
X028103Y076552D01*
X027307Y076552D01*
X027196Y076663D01*
X027038Y076821D01*
X026832Y076906D01*
X026806Y076906D01*
X026806Y076922D01*
X026727Y077112D01*
X026582Y077258D01*
X026391Y077337D01*
X026185Y077337D01*
X025996Y077259D01*
X020014Y077259D01*
X019634Y077638D01*
X021257Y077638D01*
X021419Y077705D01*
X021543Y077829D01*
X022370Y078656D01*
X022437Y078818D01*
X022437Y080611D01*
X022482Y080593D01*
X023519Y079556D01*
X023681Y079489D01*
X027129Y079489D01*
X027147Y079471D01*
X027147Y078148D01*
X021862Y078148D01*
X021624Y077910D02*
X027291Y077910D01*
X027338Y077863D02*
X027706Y077495D01*
X027868Y077428D01*
X028371Y077428D01*
X028396Y077403D01*
X028587Y077324D01*
X028793Y077324D01*
X028507Y076956D02*
X026792Y076956D01*
X027142Y076717D02*
X028269Y076717D01*
X027856Y077433D02*
X019839Y077433D01*
X019280Y078511D02*
X018640Y079151D01*
X016648Y079151D01*
X016648Y079651D02*
X016650Y079653D01*
X016648Y080651D02*
X017365Y080651D01*
X017666Y080952D01*
X017230Y081249D02*
X016336Y081249D01*
X016336Y081487D02*
X017893Y081487D01*
X017893Y081726D02*
X016336Y081726D01*
X016336Y081964D02*
X017893Y081964D01*
X017893Y082203D02*
X016336Y082203D01*
X016336Y082441D02*
X017893Y082441D01*
X017893Y082680D02*
X016336Y082680D01*
X016384Y082918D02*
X017893Y082918D01*
X017893Y083157D02*
X016414Y083157D01*
X016352Y083395D02*
X017893Y083395D01*
X017893Y083634D02*
X017055Y083634D01*
X017088Y083643D02*
X017167Y083675D01*
X017240Y083718D01*
X017308Y083770D01*
X017368Y083830D01*
X017420Y083898D01*
X017463Y083971D01*
X017495Y084050D01*
X017517Y084132D01*
X017529Y084217D01*
X017529Y084260D01*
X017529Y084302D01*
X017517Y084387D01*
X017495Y084469D01*
X017463Y084548D01*
X017420Y084621D01*
X017368Y084689D01*
X017308Y084749D01*
X017305Y084752D01*
X017308Y084754D01*
X017368Y084814D01*
X017420Y084882D01*
X017463Y084956D01*
X017495Y085034D01*
X017517Y085117D01*
X017529Y085201D01*
X017529Y085244D01*
X017529Y085286D01*
X017517Y085371D01*
X017495Y085453D01*
X017463Y085532D01*
X017420Y085606D01*
X017368Y085673D01*
X017308Y085734D01*
X017240Y085785D01*
X017167Y085828D01*
X017088Y085861D01*
X017006Y085883D01*
X016921Y085894D01*
X016879Y085894D01*
X016879Y085244D01*
X017529Y085244D01*
X016879Y085244D01*
X016879Y085244D01*
X016879Y085244D01*
X016879Y085894D01*
X016836Y085894D01*
X016751Y085883D01*
X016669Y085861D01*
X016590Y085828D01*
X016517Y085785D01*
X016449Y085734D01*
X016389Y085673D01*
X016337Y085606D01*
X016294Y085532D01*
X016262Y085453D01*
X016240Y085371D01*
X016229Y085286D01*
X016229Y085244D01*
X016879Y085244D01*
X016879Y084594D01*
X016879Y084260D01*
X016879Y084260D01*
X017529Y084260D01*
X016879Y084260D01*
X016879Y084260D01*
X016879Y085244D01*
X016879Y085244D01*
X016879Y085244D01*
X016229Y085244D01*
X016229Y085201D01*
X016240Y085117D01*
X016262Y085034D01*
X016294Y084956D01*
X016337Y084882D01*
X016389Y084814D01*
X016449Y084754D01*
X016452Y084752D01*
X016449Y084749D01*
X016389Y084689D01*
X016337Y084621D01*
X016294Y084548D01*
X016262Y084469D01*
X016240Y084387D01*
X016229Y084302D01*
X016229Y084260D01*
X016879Y084260D01*
X016879Y084260D01*
X016879Y083610D01*
X016921Y083610D01*
X017006Y083621D01*
X017088Y083643D01*
X016879Y083634D02*
X016879Y083634D01*
X016879Y083610D02*
X016879Y084260D01*
X016879Y084260D01*
X016229Y084260D01*
X016229Y084217D01*
X016240Y084132D01*
X016262Y084050D01*
X016294Y083971D01*
X016337Y083898D01*
X016389Y083830D01*
X016449Y083770D01*
X016517Y083718D01*
X016590Y083675D01*
X016669Y083643D01*
X016751Y083621D01*
X016836Y083610D01*
X016879Y083610D01*
X016702Y083634D02*
X016163Y083634D01*
X016356Y083872D02*
X013895Y083872D01*
X013895Y083634D02*
X015390Y083634D01*
X015200Y083395D02*
X013895Y083395D01*
X013895Y083157D02*
X015138Y083157D01*
X015168Y082918D02*
X013895Y082918D01*
X013895Y082680D02*
X015216Y082680D01*
X015216Y082441D02*
X013895Y082441D01*
X013895Y082203D02*
X015216Y082203D01*
X014743Y081504D02*
X014861Y081385D01*
X015776Y081385D01*
X015776Y083118D01*
X016245Y084111D02*
X013895Y084111D01*
X013895Y084349D02*
X016235Y084349D01*
X016318Y084588D02*
X013895Y084588D01*
X013895Y084826D02*
X016380Y084826D01*
X016254Y085065D02*
X013895Y085065D01*
X013895Y085303D02*
X016231Y085303D01*
X016300Y085542D02*
X013895Y085542D01*
X013895Y085780D02*
X016510Y085780D01*
X016879Y085780D02*
X016879Y085780D01*
X016879Y085542D02*
X016879Y085542D01*
X016879Y085303D02*
X016879Y085303D01*
X016879Y085065D02*
X016879Y085065D01*
X016879Y084826D02*
X016879Y084826D01*
X016879Y084588D02*
X016879Y084588D01*
X016879Y084349D02*
X016879Y084349D01*
X016879Y084111D02*
X016879Y084111D01*
X016879Y083872D02*
X016879Y083872D01*
X017401Y083872D02*
X017964Y083872D01*
X018182Y084111D02*
X017512Y084111D01*
X017522Y084349D02*
X018420Y084349D01*
X018659Y084588D02*
X017440Y084588D01*
X017378Y084826D02*
X019011Y084826D01*
X019500Y085303D02*
X017526Y085303D01*
X017504Y085065D02*
X020532Y085065D01*
X020287Y085303D02*
X020241Y085303D01*
X019871Y085637D02*
X019871Y085716D01*
X020619Y086464D01*
X023729Y086464D01*
X024650Y085543D01*
X024650Y085271D01*
X025117Y085780D02*
X025183Y085780D01*
X024713Y086973D02*
X026052Y086973D01*
X025857Y087211D02*
X025191Y087211D01*
X025325Y087450D02*
X025759Y087450D01*
X025750Y087688D02*
X024703Y087688D01*
X024703Y087628D02*
X024703Y086973D01*
X024628Y086973D02*
X024628Y087628D01*
X024703Y087628D01*
X024628Y087688D02*
X022696Y087688D01*
X022696Y087628D02*
X022696Y086973D01*
X022705Y086973D02*
X024619Y086973D01*
X024628Y087211D02*
X024703Y087211D01*
X024703Y087450D02*
X024628Y087450D01*
X024141Y087211D02*
X023183Y087211D01*
X023317Y087450D02*
X024007Y087450D01*
X024025Y087927D02*
X023299Y087927D01*
X022696Y087628D02*
X022621Y087628D01*
X022621Y086973D01*
X022611Y086973D02*
X021256Y086973D01*
X021458Y087211D02*
X022133Y087211D01*
X021999Y087450D02*
X021557Y087450D01*
X021571Y087688D02*
X022621Y087688D01*
X022621Y087450D02*
X022696Y087450D01*
X022696Y087211D02*
X022621Y087211D01*
X022017Y087927D02*
X021537Y087927D01*
X020267Y086734D02*
X013895Y086734D01*
X013895Y086496D02*
X020028Y086496D01*
X019790Y086257D02*
X013895Y086257D01*
X013895Y086019D02*
X019547Y086019D01*
X019390Y085780D02*
X017247Y085780D01*
X017457Y085542D02*
X019372Y085542D01*
X020060Y086973D02*
X013910Y086973D01*
X013973Y087211D02*
X019858Y087211D01*
X019760Y087450D02*
X013944Y087450D01*
X013801Y087688D02*
X016180Y087688D01*
X016020Y087927D02*
X012611Y087927D01*
X012611Y088165D02*
X016009Y088165D01*
X016009Y088404D02*
X012611Y088404D01*
X012561Y088642D02*
X016009Y088642D01*
X016009Y088881D02*
X012423Y088881D01*
X012677Y087688D02*
X012870Y087688D01*
X012727Y087450D02*
X012677Y087450D01*
X012677Y087211D02*
X012697Y087211D01*
X012677Y086973D02*
X012760Y086973D01*
X012775Y086734D02*
X012677Y086734D01*
X012677Y086496D02*
X012775Y086496D01*
X012775Y086257D02*
X012677Y086257D01*
X012677Y086019D02*
X012775Y086019D01*
X012775Y085780D02*
X012677Y085780D01*
X012677Y085542D02*
X012775Y085542D01*
X012775Y085303D02*
X012677Y085303D01*
X012677Y085065D02*
X012775Y085065D01*
X012775Y084826D02*
X012677Y084826D01*
X012677Y084588D02*
X012775Y084588D01*
X012775Y084349D02*
X012677Y084349D01*
X012677Y084111D02*
X012775Y084111D01*
X012775Y083872D02*
X012677Y083872D01*
X012677Y083634D02*
X012775Y083634D01*
X012775Y083395D02*
X012677Y083395D01*
X012691Y083157D02*
X012775Y083157D01*
X012775Y082918D02*
X012668Y082918D01*
X012775Y082680D02*
X012551Y082680D01*
X012775Y082441D02*
X012219Y082441D01*
X012775Y082203D02*
X011099Y082203D01*
X011099Y081964D02*
X012775Y081964D01*
X012775Y081726D02*
X011102Y081726D01*
X011212Y081487D02*
X012775Y081487D01*
X012775Y081249D02*
X011217Y081249D01*
X011131Y081010D02*
X012655Y081010D01*
X012618Y080772D02*
X010860Y080772D01*
X010822Y080533D02*
X012674Y080533D01*
X012854Y080295D02*
X010822Y080295D01*
X010822Y080056D02*
X013508Y080056D01*
X013508Y079818D02*
X010822Y079818D01*
X010865Y079579D02*
X013508Y079579D01*
X013508Y079341D02*
X011103Y079341D01*
X011342Y079102D02*
X013508Y079102D01*
X013515Y078864D02*
X011580Y078864D01*
X011819Y078625D02*
X013508Y078625D01*
X013525Y078387D02*
X012057Y078387D01*
X012296Y078148D02*
X013508Y078148D01*
X013527Y077910D02*
X012534Y077910D01*
X012773Y077671D02*
X013508Y077671D01*
X013518Y077433D02*
X013011Y077433D01*
X013250Y077194D02*
X013508Y077194D01*
X013488Y076956D02*
X013508Y076956D01*
X014228Y080651D02*
X014054Y080825D01*
X014054Y081504D01*
X014054Y081071D01*
X014151Y081071D01*
X014163Y081042D01*
X014204Y081001D01*
X013895Y081001D01*
X013895Y081071D01*
X014054Y081071D01*
X014054Y081504D01*
X014054Y081504D01*
X014054Y081487D02*
X014054Y081487D01*
X014054Y081249D02*
X014054Y081249D01*
X014195Y081010D02*
X013895Y081010D01*
X013335Y080874D02*
X013335Y087252D01*
X011237Y087211D02*
X005194Y087211D01*
X005194Y086973D02*
X011237Y086973D01*
X011237Y086734D02*
X005194Y086734D01*
X005194Y086496D02*
X011237Y086496D01*
X011237Y086257D02*
X005194Y086257D01*
X005194Y086019D02*
X011237Y086019D01*
X011237Y085780D02*
X009964Y085780D01*
X009957Y085785D02*
X009883Y085828D01*
X009804Y085861D01*
X009722Y085883D01*
X009638Y085894D01*
X009595Y085894D01*
X009553Y085894D01*
X009468Y085883D01*
X009386Y085861D01*
X009307Y085828D01*
X009233Y085785D01*
X009166Y085734D01*
X009105Y085673D01*
X009053Y085606D01*
X009011Y085532D01*
X008978Y085453D01*
X008956Y085371D01*
X008945Y085286D01*
X008945Y085244D01*
X009595Y085244D01*
X009595Y085894D01*
X009595Y085244D01*
X009595Y085244D01*
X009595Y085244D01*
X008945Y085244D01*
X008945Y085201D01*
X008956Y085117D01*
X008978Y085034D01*
X009011Y084956D01*
X009053Y084882D01*
X009105Y084814D01*
X009166Y084754D01*
X009169Y084752D01*
X009166Y084749D01*
X009105Y084689D01*
X009053Y084621D01*
X009011Y084548D01*
X008978Y084469D01*
X008956Y084387D01*
X008945Y084302D01*
X008945Y084260D01*
X009595Y084260D01*
X009595Y085244D01*
X010245Y085244D01*
X010245Y085286D01*
X010234Y085371D01*
X010212Y085453D01*
X010179Y085532D01*
X010137Y085606D01*
X010085Y085673D01*
X010025Y085734D01*
X009957Y085785D01*
X010174Y085542D02*
X011237Y085542D01*
X011237Y085303D02*
X010243Y085303D01*
X010245Y085244D02*
X009595Y085244D01*
X009595Y085244D01*
X009595Y085244D01*
X009595Y084910D01*
X009595Y084260D01*
X009595Y084260D01*
X009595Y084260D01*
X010245Y084260D01*
X010245Y084302D01*
X010234Y084387D01*
X010212Y084469D01*
X010179Y084548D01*
X010137Y084621D01*
X010085Y084689D01*
X010025Y084749D01*
X010021Y084752D01*
X010025Y084754D01*
X010085Y084814D01*
X010137Y084882D01*
X010179Y084956D01*
X010212Y085034D01*
X010234Y085117D01*
X010245Y085201D01*
X010245Y085244D01*
X010220Y085065D02*
X011237Y085065D01*
X011237Y084826D02*
X010094Y084826D01*
X010156Y084588D02*
X011237Y084588D01*
X011237Y084349D02*
X010239Y084349D01*
X010245Y084260D02*
X009595Y084260D01*
X009595Y084260D01*
X008945Y084260D01*
X008945Y084217D01*
X008956Y084132D01*
X008978Y084050D01*
X009011Y083971D01*
X009053Y083898D01*
X009105Y083830D01*
X009155Y083780D01*
X009101Y083758D01*
X008408Y083758D01*
X008314Y083768D01*
X008282Y083758D01*
X008247Y083758D01*
X008160Y083722D01*
X008070Y083695D01*
X008044Y083673D01*
X008012Y083660D01*
X007979Y083627D01*
X007974Y083625D01*
X007894Y083552D01*
X007811Y083484D01*
X007801Y083467D01*
X007632Y083312D01*
X007618Y083306D01*
X007538Y083226D01*
X007455Y083149D01*
X007449Y083136D01*
X007447Y083135D01*
X007334Y083248D01*
X007619Y083532D01*
X007619Y083748D01*
X007619Y083963D01*
X007334Y084248D01*
X007619Y084532D01*
X007619Y084748D01*
X007619Y084963D01*
X007314Y085268D01*
X007099Y085268D01*
X006884Y085268D01*
X006766Y085150D01*
X006752Y085184D01*
X006535Y085400D01*
X006463Y085430D01*
X006406Y085488D01*
X006325Y085488D01*
X006252Y085518D01*
X005946Y085518D01*
X005873Y085488D01*
X005793Y085488D01*
X005735Y085430D01*
X005663Y085400D01*
X005446Y085184D01*
X005416Y085111D01*
X005359Y085054D01*
X005359Y084973D01*
X005329Y084901D01*
X005329Y083367D01*
X005194Y083311D01*
X005194Y088354D01*
X005328Y088120D01*
X005543Y087906D01*
X005805Y087755D01*
X006097Y087677D01*
X006400Y087677D01*
X006693Y087755D01*
X006955Y087906D01*
X007169Y088120D01*
X007320Y088383D01*
X007399Y088675D01*
X007399Y088978D01*
X007320Y089270D01*
X007169Y089533D01*
X006955Y089747D01*
X006722Y089881D01*
X008845Y089881D01*
X008845Y087978D01*
X008894Y087861D01*
X008984Y087771D01*
X009101Y087722D01*
X009441Y087722D01*
X009482Y087705D01*
X011153Y087705D01*
X011170Y087688D01*
X011237Y087660D01*
X011237Y083838D01*
X010091Y083838D01*
X010137Y083898D01*
X010179Y083971D01*
X010212Y084050D01*
X010234Y084132D01*
X010245Y084217D01*
X010245Y084260D01*
X010228Y084111D02*
X011237Y084111D01*
X011237Y083872D02*
X010117Y083872D01*
X009595Y084349D02*
X009595Y084349D01*
X009595Y084588D02*
X009595Y084588D01*
X009595Y084826D02*
X009595Y084826D01*
X009595Y085065D02*
X009595Y085065D01*
X009595Y085303D02*
X009595Y085303D01*
X009595Y085542D02*
X009595Y085542D01*
X009595Y085780D02*
X009595Y085780D01*
X009227Y085780D02*
X005194Y085780D01*
X005194Y085542D02*
X009017Y085542D01*
X008947Y085303D02*
X006632Y085303D01*
X007099Y085268D02*
X007099Y084748D01*
X007099Y084748D01*
X007099Y085268D01*
X007099Y085065D02*
X007099Y085065D01*
X007099Y084826D02*
X007099Y084826D01*
X007099Y084748D02*
X007619Y084748D01*
X007099Y084748D01*
X007099Y084748D01*
X007099Y084748D01*
X007099Y083748D01*
X007099Y083748D01*
X007099Y084228D01*
X007099Y084748D01*
X007099Y084588D02*
X007099Y084588D01*
X007099Y084349D02*
X007099Y084349D01*
X007099Y084111D02*
X007099Y084111D01*
X007099Y083872D02*
X007099Y083872D01*
X007099Y083748D02*
X007619Y083748D01*
X007099Y083748D01*
X007099Y083748D01*
X007099Y083748D01*
X007099Y082748D01*
X007099Y082748D01*
X007099Y083228D01*
X007099Y083748D01*
X007099Y083634D02*
X007099Y083634D01*
X007099Y083395D02*
X007099Y083395D01*
X007099Y083157D02*
X007099Y083157D01*
X007099Y082918D02*
X007099Y082918D01*
X007425Y083157D02*
X007463Y083157D01*
X007482Y083395D02*
X007723Y083395D01*
X007619Y083634D02*
X007986Y083634D01*
X007619Y083872D02*
X009073Y083872D01*
X008962Y084111D02*
X007471Y084111D01*
X007436Y084349D02*
X008951Y084349D01*
X009034Y084588D02*
X007619Y084588D01*
X007619Y084826D02*
X009096Y084826D01*
X008970Y085065D02*
X007517Y085065D01*
X006444Y087688D02*
X011170Y087688D01*
X011237Y087450D02*
X005194Y087450D01*
X005194Y087688D02*
X006053Y087688D01*
X005522Y087927D02*
X005194Y087927D01*
X005194Y088165D02*
X005303Y088165D01*
X006975Y087927D02*
X008867Y087927D01*
X008845Y088165D02*
X007195Y088165D01*
X007326Y088404D02*
X008845Y088404D01*
X008845Y088642D02*
X007390Y088642D01*
X007399Y088881D02*
X008845Y088881D01*
X008845Y089119D02*
X007361Y089119D01*
X007270Y089358D02*
X008845Y089358D01*
X008845Y089596D02*
X007105Y089596D01*
X006802Y089835D02*
X008845Y089835D01*
X010345Y089835D02*
X016009Y089835D01*
X016009Y089596D02*
X010345Y089596D01*
X010345Y089358D02*
X016009Y089358D01*
X016009Y089119D02*
X010345Y089119D01*
X010345Y088881D02*
X011214Y088881D01*
X013895Y081964D02*
X014163Y081964D01*
X014054Y081726D02*
X014054Y081726D01*
X013335Y080874D02*
X013257Y080795D01*
X015776Y081385D02*
X015776Y080165D01*
X015790Y080151D01*
X015776Y080165D02*
X015776Y077212D01*
X015837Y077151D01*
X016648Y077151D01*
X017614Y076240D02*
X018016Y076240D01*
X017769Y076395D02*
X017796Y076460D01*
X018755Y075501D01*
X018917Y075434D01*
X021249Y075434D01*
X020128Y074312D01*
X020061Y074150D01*
X020061Y073975D01*
X020061Y070423D01*
X017869Y072614D01*
X017869Y073749D01*
X017808Y073896D01*
X016919Y074785D01*
X016952Y074785D01*
X018565Y073171D01*
X018567Y072737D01*
X018510Y072599D01*
X018510Y072401D01*
X018586Y072217D01*
X018726Y072077D01*
X018909Y072001D01*
X018992Y072001D01*
X019054Y071851D01*
X019195Y071711D01*
X019378Y071635D01*
X019576Y071635D01*
X019759Y071711D01*
X019900Y071851D01*
X019975Y072034D01*
X019975Y072233D01*
X019917Y072374D01*
X019917Y073638D01*
X019850Y073800D01*
X019726Y073924D01*
X017561Y076089D01*
X017492Y076118D01*
X017656Y076283D01*
X017769Y076395D01*
X017648Y076002D02*
X018254Y076002D01*
X018493Y075763D02*
X017887Y075763D01*
X018125Y075525D02*
X018731Y075525D01*
X018364Y075286D02*
X021102Y075286D01*
X020863Y075048D02*
X018602Y075048D01*
X018841Y074809D02*
X020625Y074809D01*
X020386Y074571D02*
X019079Y074571D01*
X019318Y074332D02*
X020148Y074332D01*
X020061Y074094D02*
X019556Y074094D01*
X019795Y073855D02*
X020061Y073855D01*
X020061Y073617D02*
X019917Y073617D01*
X019917Y073378D02*
X020061Y073378D01*
X020061Y073140D02*
X019917Y073140D01*
X019917Y072901D02*
X020061Y072901D01*
X020061Y072663D02*
X019917Y072663D01*
X019917Y072424D02*
X020061Y072424D01*
X020061Y072186D02*
X019975Y072186D01*
X019939Y071947D02*
X020061Y071947D01*
X020061Y071709D02*
X019754Y071709D01*
X020061Y071470D02*
X019013Y071470D01*
X019200Y071709D02*
X018775Y071709D01*
X018536Y071947D02*
X019015Y071947D01*
X018617Y072186D02*
X018298Y072186D01*
X018510Y072424D02*
X018059Y072424D01*
X017869Y072663D02*
X018537Y072663D01*
X018567Y072901D02*
X017869Y072901D01*
X017869Y073140D02*
X018566Y073140D01*
X018358Y073378D02*
X017869Y073378D01*
X017869Y073617D02*
X018120Y073617D01*
X017881Y073855D02*
X017825Y073855D01*
X017643Y074094D02*
X017610Y074094D01*
X017404Y074332D02*
X017371Y074332D01*
X017166Y074571D02*
X017133Y074571D01*
X017075Y075283D02*
X016879Y075283D01*
X017075Y075283D02*
X019005Y073354D01*
X019008Y072500D01*
X019477Y072134D02*
X019477Y073551D01*
X017312Y075716D01*
X019280Y078511D02*
X020973Y078511D01*
X021564Y079102D01*
X021564Y082015D01*
X023650Y084102D01*
X023650Y084271D01*
X023571Y083433D02*
X025343Y083433D01*
X025650Y083740D01*
X025650Y084271D01*
X026227Y083872D02*
X027400Y083872D01*
X027341Y084111D02*
X026340Y084111D01*
X026340Y084349D02*
X027397Y084349D01*
X027681Y084588D02*
X026310Y084588D01*
X026181Y084826D02*
X027493Y084826D01*
X027443Y085065D02*
X026340Y085065D01*
X026340Y085303D02*
X027508Y085303D01*
X027942Y085047D02*
X028611Y084378D01*
X028060Y083897D02*
X027839Y084114D01*
X028060Y083897D02*
X028060Y081307D01*
X027574Y081487D02*
X024013Y081487D01*
X024252Y081249D02*
X027542Y081249D01*
X027623Y081010D02*
X024490Y081010D01*
X024516Y080362D02*
X023257Y081622D01*
X023647Y081964D02*
X027620Y081964D01*
X027620Y081726D02*
X023775Y081726D01*
X023202Y082441D02*
X027620Y082441D01*
X027620Y082203D02*
X022964Y082203D01*
X022866Y081964D02*
X022725Y081964D01*
X022739Y081726D02*
X022487Y081726D01*
X022587Y081110D02*
X023768Y079929D01*
X027312Y079929D01*
X027587Y079653D01*
X027587Y078236D01*
X027955Y077868D01*
X028715Y077868D01*
X030885Y077868D01*
X030885Y078368D02*
X028231Y078368D01*
X028217Y078354D01*
X028217Y079693D01*
X027548Y080362D01*
X024516Y080362D01*
X023496Y079579D02*
X022437Y079579D01*
X022437Y079341D02*
X027147Y079341D01*
X027147Y079102D02*
X022437Y079102D01*
X022437Y078864D02*
X027147Y078864D01*
X027147Y078625D02*
X022339Y078625D01*
X022101Y078387D02*
X027147Y078387D01*
X027147Y078148D02*
X027214Y077987D01*
X027338Y077863D01*
X027530Y077671D02*
X021337Y077671D01*
X022437Y079818D02*
X023257Y079818D01*
X023019Y080056D02*
X022437Y080056D01*
X022437Y080295D02*
X022780Y080295D01*
X022542Y080533D02*
X022437Y080533D01*
X020422Y079929D02*
X020422Y083787D01*
X019871Y083385D02*
X019871Y080362D01*
X019320Y080795D02*
X019320Y083000D01*
X020942Y085065D02*
X021060Y085065D01*
X020737Y085519D02*
X020737Y085716D01*
X021052Y086031D01*
X023375Y086031D01*
X023650Y085756D01*
X023650Y085271D01*
X025307Y087927D02*
X025788Y087927D01*
X027272Y086973D02*
X037821Y086973D01*
X041522Y089835D02*
X017749Y089835D01*
X021631Y074571D02*
X031872Y074571D01*
X031872Y074332D02*
X027562Y074332D01*
X027729Y074094D02*
X031892Y074094D01*
X032031Y073855D02*
X032071Y073855D01*
X032121Y073617D02*
X032350Y073617D01*
X031603Y073551D02*
X030697Y073551D01*
X029398Y072252D01*
X028909Y072424D02*
X027242Y072424D01*
X027242Y072186D02*
X028880Y072186D01*
X028970Y071947D02*
X027242Y071947D01*
X027242Y071709D02*
X028401Y071709D01*
X028978Y071709D02*
X029983Y071709D01*
X029827Y071947D02*
X030221Y071947D01*
X030376Y072186D02*
X029955Y072186D01*
X030193Y072424D02*
X030376Y072424D01*
X029664Y073140D02*
X027242Y073140D01*
X027242Y072901D02*
X029426Y072901D01*
X029077Y072663D02*
X027242Y072663D01*
X027541Y073378D02*
X029903Y073378D01*
X030141Y073617D02*
X027720Y073617D01*
X027773Y073855D02*
X030380Y073855D01*
X029313Y075048D02*
X031774Y075048D01*
X031799Y074809D02*
X029074Y074809D01*
X029551Y075286D02*
X031886Y075286D01*
X032327Y075525D02*
X029790Y075525D01*
X030028Y075763D02*
X032631Y075763D01*
X032898Y075763D02*
X033625Y075763D01*
X033329Y075525D02*
X033202Y075525D01*
X033305Y076668D02*
X033305Y076868D01*
X033305Y076918D01*
X033305Y076918D01*
X033305Y076868D01*
X033305Y076868D01*
X033305Y076868D01*
X032685Y076868D01*
X032685Y076954D01*
X032613Y076954D01*
X032590Y076931D01*
X032407Y076856D01*
X032209Y076856D01*
X032025Y076931D01*
X031885Y077072D01*
X031809Y077255D01*
X031809Y077435D01*
X031789Y077443D01*
X031725Y077507D01*
X031725Y077150D01*
X031658Y076989D01*
X031605Y076936D01*
X031605Y076674D01*
X031603Y076668D01*
X032696Y076668D01*
X032685Y076709D01*
X032685Y076868D01*
X033305Y076868D01*
X033925Y076868D01*
X033925Y077005D01*
X033976Y077057D01*
X034025Y077174D01*
X034025Y077561D01*
X034002Y077618D01*
X034025Y077674D01*
X034025Y078061D01*
X034002Y078118D01*
X034025Y078174D01*
X034025Y078561D01*
X034002Y078618D01*
X034025Y078674D01*
X034025Y079061D01*
X034002Y079118D01*
X034025Y079174D01*
X034025Y079561D01*
X034002Y079618D01*
X034025Y079674D01*
X034025Y080061D01*
X034002Y080118D01*
X034025Y080174D01*
X034025Y080561D01*
X033976Y080679D01*
X033886Y080769D01*
X033769Y080818D01*
X032841Y080818D01*
X032724Y080769D01*
X032701Y080746D01*
X032652Y080746D01*
X032629Y080769D01*
X032456Y080841D01*
X032456Y080867D01*
X033862Y080867D01*
X034194Y080534D01*
X034194Y076922D01*
X033940Y076668D01*
X033914Y076668D01*
X033925Y076709D01*
X033925Y076868D01*
X033305Y076868D01*
X033305Y076868D01*
X033305Y076868D01*
X033305Y076668D01*
X033305Y076668D01*
X033305Y076717D02*
X033305Y076717D01*
X032685Y076717D02*
X031605Y076717D01*
X031625Y076956D02*
X032001Y076956D01*
X031834Y077194D02*
X031725Y077194D01*
X031725Y077433D02*
X031809Y077433D01*
X030885Y080368D02*
X030113Y080368D01*
X029989Y080244D01*
X028715Y077868D02*
X028690Y077842D01*
X027620Y083157D02*
X025689Y083157D01*
X025716Y083184D02*
X025716Y083184D01*
X025928Y083395D02*
X027620Y083395D01*
X027620Y083634D02*
X026083Y083634D01*
X025613Y073617D02*
X025613Y073617D01*
X025518Y071470D02*
X025730Y071470D01*
X027942Y070795D02*
X026367Y069220D01*
X024634Y069220D01*
X024113Y069742D01*
X024113Y070723D01*
X023613Y070723D02*
X023613Y070167D01*
X023613Y069931D01*
X023571Y069889D01*
X023611Y070165D02*
X023613Y070167D01*
X023099Y070126D02*
X023099Y070709D01*
X023113Y070723D01*
X022613Y070723D02*
X022613Y071399D01*
X022508Y071504D01*
X021713Y071504D01*
X021595Y071622D01*
X021595Y071838D01*
X022113Y070723D02*
X022115Y070721D01*
X022115Y070204D01*
X022981Y070008D02*
X022981Y069889D01*
X022981Y070008D02*
X023099Y070126D01*
X024288Y068944D02*
X024288Y068700D01*
X024197Y068479D01*
X026609Y068479D01*
X026546Y068505D01*
X026400Y068651D01*
X026347Y068780D01*
X024547Y068780D01*
X024385Y068847D01*
X024288Y068944D01*
X024288Y068847D02*
X024386Y068847D01*
X024251Y068608D02*
X026443Y068608D01*
X028099Y068039D02*
X023690Y068039D01*
X023650Y065401D02*
X023650Y064535D01*
X024165Y064315D02*
X028084Y064315D01*
X027845Y064077D02*
X023984Y064077D01*
X022900Y060990D02*
X022430Y060519D01*
X018178Y060519D01*
X017594Y060261D02*
X016401Y060261D01*
X016432Y060022D02*
X017772Y060022D01*
X016918Y060992D02*
X016642Y061267D01*
X016892Y061517D01*
X016892Y061740D01*
X017558Y061740D01*
X017732Y062392D02*
X017732Y062593D01*
X017665Y062755D01*
X017612Y062808D01*
X017612Y062836D01*
X017769Y062836D01*
X017959Y062915D01*
X018105Y063061D01*
X018169Y063213D01*
X018369Y063013D01*
X018447Y062824D01*
X018593Y062679D01*
X018783Y062600D01*
X018990Y062600D01*
X019180Y062679D01*
X019296Y062795D01*
X019744Y062346D01*
X019628Y062230D01*
X019549Y062040D01*
X019549Y061834D01*
X019628Y061643D01*
X019720Y061552D01*
X018673Y061552D01*
X018673Y061740D01*
X018673Y061981D01*
X018658Y062037D01*
X018629Y062088D01*
X018588Y062128D01*
X018538Y062157D01*
X018482Y062172D01*
X018247Y062172D01*
X018247Y061740D01*
X018673Y061740D01*
X018247Y061740D01*
X018247Y061740D01*
X018247Y061740D01*
X018247Y062172D01*
X018150Y062172D01*
X018137Y062202D01*
X018014Y062325D01*
X017852Y062392D01*
X017732Y062392D01*
X017732Y062407D02*
X019683Y062407D01*
X019603Y062169D02*
X018496Y062169D01*
X018247Y062169D02*
X018247Y062169D01*
X018247Y061930D02*
X018247Y061930D01*
X018673Y061930D02*
X019549Y061930D01*
X019608Y061692D02*
X018673Y061692D01*
X018672Y062646D02*
X017710Y062646D01*
X017886Y062884D02*
X018422Y062884D01*
X018259Y063123D02*
X018131Y063123D01*
X017666Y063354D02*
X017644Y063376D01*
X016892Y063376D01*
X016892Y063876D02*
X018129Y063876D01*
X018886Y063118D01*
X019101Y062646D02*
X019445Y062646D01*
X020068Y061937D02*
X020514Y061490D01*
X028085Y061490D01*
X030582Y061490D01*
X030582Y060990D02*
X022900Y060990D01*
X022115Y060992D02*
X016918Y060992D01*
X016644Y060499D02*
X016226Y060499D01*
X015101Y060738D02*
X014802Y060738D01*
X014069Y060738D02*
X013802Y060738D01*
X013997Y061930D02*
X011034Y061930D01*
X010795Y062169D02*
X013757Y062169D01*
X013752Y062407D02*
X010556Y062407D01*
X010318Y062646D02*
X013767Y062646D01*
X013752Y062884D02*
X009917Y062884D01*
X009714Y063123D02*
X013774Y063123D01*
X013069Y060738D02*
X011161Y060738D01*
X011167Y060499D02*
X012938Y060499D01*
X012035Y055729D02*
X010270Y055729D01*
X010140Y055491D02*
X011990Y055491D01*
X012058Y055252D02*
X010118Y055252D01*
X009973Y055014D02*
X012375Y055014D01*
X012642Y055014D02*
X017786Y055014D01*
X018024Y054775D02*
X010171Y054775D01*
X012508Y055519D02*
X017902Y055519D01*
X019044Y054378D01*
X019030Y055014D02*
X022116Y055014D01*
X021878Y055252D02*
X021572Y055252D01*
X021334Y054775D02*
X022355Y054775D01*
X022593Y054537D02*
X021593Y054537D01*
X022138Y055614D02*
X023690Y054063D01*
X024241Y054456D02*
X026839Y054456D01*
X027444Y055061D01*
X027444Y055100D01*
X026642Y055283D02*
X027981Y056622D01*
X026524Y056173D02*
X025733Y056964D01*
X025138Y056964D01*
X025138Y055964D02*
X025820Y055283D01*
X026642Y055283D01*
X028294Y059545D02*
X024026Y059545D01*
X023138Y059023D02*
X023138Y057370D01*
X023138Y056964D01*
X022138Y056964D02*
X022138Y058291D01*
X022138Y055964D02*
X022138Y055614D01*
X023138Y055559D02*
X024241Y054456D01*
X023138Y055559D02*
X023138Y055964D01*
X020705Y055252D02*
X018792Y055252D01*
X018553Y055491D02*
X020466Y055491D01*
X020328Y055729D02*
X018315Y055729D01*
X020328Y055968D02*
X015788Y055968D01*
X018886Y060008D02*
X028532Y060008D01*
X029050Y060022D02*
X030095Y060022D01*
X030084Y059784D02*
X029000Y059784D01*
X028770Y059545D02*
X030219Y059545D01*
X030579Y059889D02*
X030582Y059892D01*
X030582Y060490D01*
X029877Y060261D02*
X028988Y060261D01*
X028085Y061490D02*
X027981Y061464D01*
X025816Y065952D02*
X030264Y065952D01*
X032863Y068551D01*
X032883Y070755D02*
X032697Y070755D01*
X033925Y076717D02*
X033990Y076717D01*
X033925Y076956D02*
X034194Y076956D01*
X034194Y077194D02*
X034025Y077194D01*
X034025Y077433D02*
X034194Y077433D01*
X034194Y077671D02*
X034024Y077671D01*
X034025Y077910D02*
X034194Y077910D01*
X034194Y078148D02*
X034014Y078148D01*
X034025Y078387D02*
X034194Y078387D01*
X034194Y078625D02*
X034005Y078625D01*
X034025Y078864D02*
X034194Y078864D01*
X034194Y079102D02*
X034008Y079102D01*
X034025Y079341D02*
X034194Y079341D01*
X034194Y079579D02*
X034018Y079579D01*
X034025Y079818D02*
X034194Y079818D01*
X034194Y080056D02*
X034025Y080056D01*
X034025Y080295D02*
X034194Y080295D01*
X034194Y080533D02*
X034025Y080533D01*
X033957Y080772D02*
X033880Y080772D01*
X032730Y080772D02*
X032622Y080772D01*
X028217Y070795D02*
X027942Y070795D01*
X027404Y071470D02*
X027242Y071470D01*
X020349Y066939D02*
X017087Y066939D01*
X017342Y066700D02*
X020505Y066700D01*
X020061Y070516D02*
X019967Y070516D01*
X020061Y070755D02*
X019729Y070755D01*
X019490Y070993D02*
X020061Y070993D01*
X020061Y071232D02*
X019252Y071232D01*
X017537Y069801D02*
X017146Y069801D01*
X016879Y066464D02*
X016892Y066451D01*
X016892Y065876D01*
X016892Y065376D02*
X018113Y065376D01*
X018178Y065441D01*
X016892Y062376D02*
X016892Y061740D01*
X014021Y070516D02*
X013894Y070516D01*
X010316Y062648D02*
X010316Y062648D01*
X007488Y071947D02*
X006461Y071947D01*
X006414Y072186D02*
X006784Y072186D01*
X007414Y072186D02*
X007488Y072186D01*
X005329Y083395D02*
X005194Y083395D01*
X005194Y083634D02*
X005329Y083634D01*
X005329Y083872D02*
X005194Y083872D01*
X005194Y084111D02*
X005329Y084111D01*
X005329Y084349D02*
X005194Y084349D01*
X005194Y084588D02*
X005329Y084588D01*
X005329Y084826D02*
X005194Y084826D01*
X005194Y085065D02*
X005370Y085065D01*
X005194Y085303D02*
X005566Y085303D01*
X038005Y053812D02*
X040745Y056552D01*
X040843Y056649D01*
X040843Y056591D01*
X041127Y056307D01*
X040843Y056022D01*
X040843Y055807D01*
X041363Y055807D01*
X041363Y055807D01*
X041363Y056807D01*
X041363Y056807D01*
X041363Y057807D01*
X041363Y057807D01*
X041363Y057327D01*
X041363Y056807D01*
X041363Y056807D01*
X041363Y056327D01*
X041363Y055807D01*
X041363Y055807D01*
X040843Y055807D01*
X040843Y055591D01*
X041065Y055369D01*
X039415Y053720D01*
X037938Y053720D01*
X037987Y053769D01*
X038005Y053812D01*
X038015Y053821D02*
X039517Y053821D01*
X039755Y054060D02*
X038253Y054060D01*
X038492Y054298D02*
X039994Y054298D01*
X040232Y054537D02*
X038730Y054537D01*
X038969Y054775D02*
X040471Y054775D01*
X040709Y055014D02*
X039207Y055014D01*
X039446Y055252D02*
X040948Y055252D01*
X040943Y055491D02*
X039684Y055491D01*
X039923Y055729D02*
X040843Y055729D01*
X040843Y055968D02*
X040161Y055968D01*
X040400Y056206D02*
X041027Y056206D01*
X040989Y056445D02*
X040638Y056445D01*
X040383Y057763D02*
X040383Y057815D01*
X039150Y057815D01*
X041076Y053344D02*
X043130Y053344D01*
X043130Y053106D02*
X040838Y053106D01*
X040599Y052867D02*
X041592Y052867D01*
X041259Y052629D02*
X040361Y052629D01*
X040122Y052390D02*
X041078Y052390D01*
X041315Y053583D02*
X043130Y053583D01*
X043130Y053821D02*
X041553Y053821D01*
X041792Y054060D02*
X043130Y054060D01*
X043130Y054298D02*
X042379Y054298D01*
X042702Y054537D02*
X043130Y054537D01*
X043130Y054775D02*
X042940Y054775D01*
X043058Y055014D02*
X043130Y055014D01*
X043130Y055252D02*
X043083Y055252D01*
X043093Y055491D02*
X043130Y055491D01*
X043130Y055729D02*
X043103Y055729D01*
X043103Y055968D02*
X043130Y055968D01*
X043130Y056206D02*
X043083Y056206D01*
X043083Y056445D02*
X043130Y056445D01*
X043130Y056683D02*
X043103Y056683D01*
X043103Y056922D02*
X043130Y056922D01*
X043109Y057160D02*
X043130Y057160D01*
X041363Y057160D02*
X041363Y057160D01*
X041363Y056922D02*
X041363Y056922D01*
X041363Y056683D02*
X041363Y056683D01*
X041363Y056445D02*
X041363Y056445D01*
X041363Y056206D02*
X041363Y056206D01*
X041363Y055968D02*
X041363Y055968D01*
X041363Y057399D02*
X041363Y057399D01*
X041363Y057637D02*
X041363Y057637D01*
X042559Y052867D02*
X043130Y052867D01*
X043130Y052629D02*
X042891Y052629D01*
X043073Y052390D02*
X043130Y052390D01*
X041894Y085542D02*
X041847Y085542D01*
X042802Y087927D02*
X043130Y087927D01*
X043130Y088165D02*
X043022Y088165D01*
D26*
X037430Y054141D03*
X017627Y053551D03*
D27*
X008178Y079850D02*
X007981Y080047D01*
X007981Y082763D01*
X008313Y083067D01*
X008375Y083118D01*
X009438Y083118D01*
X011957Y087567D02*
X011971Y087567D01*
X011971Y088275D01*
X011471Y088275D02*
X011209Y088275D01*
X040383Y057094D02*
X037430Y054141D01*
X040383Y057094D02*
X040383Y057763D01*
X040383Y075008D01*
X040383Y086464D01*
X038217Y086464D01*
D28*
X026662Y087653D02*
X026662Y088492D01*
X026327Y088826D01*
X021209Y088826D01*
X020658Y088275D01*
X020658Y087665D01*
X011209Y088275D02*
X009595Y088275D01*
X009595Y088472D01*
X006099Y082748D02*
X006075Y082724D01*
X005579Y082724D01*
X005225Y082370D01*
X005225Y081874D01*
X008178Y079850D02*
X008178Y071661D01*
X008178Y054653D01*
X008410Y054421D01*
X009300Y054421D01*
D29*
X017627Y053551D02*
X017627Y052645D01*
X018768Y051504D01*
X020028Y051504D01*
X020028Y053141D01*
X020115Y053228D01*
X020028Y051504D02*
X026170Y051504D01*
X026119Y051555D01*
X026119Y053216D01*
X026170Y051504D02*
X034690Y051504D01*
X036186Y053000D01*
X039713Y053000D01*
X041682Y054968D01*
X042115Y054968D01*
X042363Y055216D01*
X042363Y055807D01*
X042363Y056807D01*
X042363Y057807D01*
X042788Y057807D01*
X043178Y058197D01*
X043178Y072334D01*
X042371Y073141D01*
X042371Y074141D01*
X042371Y075141D01*
X016879Y088472D02*
X016879Y089456D01*
X011957Y087567D02*
X011957Y083118D01*
X011971Y083118D01*
X011957Y083118D02*
X010579Y083118D01*
X009438Y083118D01*
X009595Y088472D02*
X009595Y089456D01*
D30*
X035934Y055519D02*
X035934Y053252D01*
X036186Y053000D01*
X038099Y071464D02*
X039438Y071464D01*
X038099Y071464D02*
X037508Y072055D01*
X037508Y075244D01*
D31*
X017627Y053551D02*
X006642Y053551D01*
X005186Y055008D01*
X005186Y065165D01*
X005445Y065425D01*
X006079Y065425D01*
X006079Y066425D01*
X006079Y067425D01*
X006079Y071240D01*
X005225Y072094D01*
X005225Y081874D01*
X006099Y082748D02*
X006099Y083748D01*
X006099Y084748D01*
D32*
X006249Y088826D03*
X006249Y051819D03*
X042075Y051819D03*
X042075Y088826D03*
M02*
