G75*
%MOIN*%
%OFA0B0*%
%FSLAX24Y24*%
%IPPOS*%
%LPD*%
%AMOC8*
5,1,8,0,0,1.08239X$1,22.5*
%
%ADD10R,0.0260X0.0800*%
%ADD11R,0.0800X0.0260*%
%ADD12R,0.0394X0.0433*%
%ADD13R,0.0433X0.0394*%
%ADD14R,0.0425X0.0413*%
%ADD15R,0.0413X0.0425*%
D10*
X012436Y056931D03*
X012936Y056931D03*
X013436Y056931D03*
X013936Y056931D03*
X014436Y056931D03*
X014936Y056931D03*
X015436Y056931D03*
X015936Y056931D03*
X015936Y059351D03*
X015436Y059351D03*
X014936Y059351D03*
X014436Y059351D03*
X013936Y059351D03*
X013436Y059351D03*
X012936Y059351D03*
X012436Y059351D03*
X012455Y071683D03*
X012955Y071683D03*
X013455Y071683D03*
X013955Y071683D03*
X014455Y071683D03*
X014955Y071683D03*
X015455Y071683D03*
X015955Y071683D03*
X015955Y074103D03*
X015455Y074103D03*
X014955Y074103D03*
X014455Y074103D03*
X013955Y074103D03*
X013455Y074103D03*
X012955Y074103D03*
X012455Y074103D03*
X021603Y074989D03*
X022103Y074989D03*
X022603Y074989D03*
X023103Y074989D03*
X023603Y074989D03*
X024103Y074989D03*
X024603Y074989D03*
X025103Y074989D03*
X025603Y074989D03*
X025603Y071129D03*
X025103Y071129D03*
X024603Y071129D03*
X024103Y071129D03*
X023603Y071129D03*
X023103Y071129D03*
X022603Y071129D03*
X022103Y071129D03*
X021603Y071129D03*
X031270Y071900D03*
X031770Y071900D03*
X032270Y071900D03*
X032770Y071900D03*
X033270Y071900D03*
X033770Y071900D03*
X034270Y071900D03*
X034770Y071900D03*
X034770Y074320D03*
X034270Y074320D03*
X033770Y074320D03*
X033270Y074320D03*
X032770Y074320D03*
X032270Y074320D03*
X031770Y074320D03*
X031270Y074320D03*
X031160Y058308D03*
X031660Y058308D03*
X032160Y058308D03*
X032660Y058308D03*
X033160Y058308D03*
X033660Y058308D03*
X034160Y058308D03*
X034660Y058308D03*
X034660Y055888D03*
X034160Y055888D03*
X033660Y055888D03*
X033160Y055888D03*
X032660Y055888D03*
X032160Y055888D03*
X031660Y055888D03*
X031160Y055888D03*
D11*
X030980Y060492D03*
X030980Y060992D03*
X030980Y061492D03*
X030980Y061992D03*
X030980Y062492D03*
X030980Y062992D03*
X030980Y063492D03*
X030980Y063992D03*
X030980Y064492D03*
X034840Y064492D03*
X034840Y063992D03*
X034840Y063492D03*
X034840Y062992D03*
X034840Y062492D03*
X034840Y061992D03*
X034840Y061492D03*
X034840Y060992D03*
X034840Y060492D03*
X035104Y076850D03*
X035104Y077350D03*
X035104Y077850D03*
X035104Y078350D03*
X035104Y078850D03*
X035104Y079350D03*
X035104Y079850D03*
X035104Y080350D03*
X035104Y080850D03*
X031244Y080850D03*
X031244Y080350D03*
X031244Y079850D03*
X031244Y079350D03*
X031244Y078850D03*
X031244Y078350D03*
X031244Y077850D03*
X031244Y077350D03*
X031244Y076850D03*
X024758Y067954D03*
X024758Y067454D03*
X024758Y066954D03*
X024758Y066454D03*
X024758Y065954D03*
X024758Y065454D03*
X024758Y064954D03*
X024758Y064454D03*
X022338Y064454D03*
X022338Y064954D03*
X022338Y065454D03*
X022338Y065954D03*
X022338Y066454D03*
X022338Y066954D03*
X022338Y067454D03*
X022338Y067954D03*
X016564Y065866D03*
X016564Y065366D03*
X016564Y064866D03*
X016564Y064366D03*
X016564Y063866D03*
X016564Y063366D03*
X016564Y062866D03*
X016564Y062366D03*
X016564Y061866D03*
X012704Y061866D03*
X012704Y062366D03*
X012704Y062866D03*
X012704Y063366D03*
X012704Y063866D03*
X012704Y064366D03*
X012704Y064866D03*
X012704Y065366D03*
X012704Y065866D03*
X012508Y076669D03*
X012508Y077169D03*
X012508Y077669D03*
X012508Y078169D03*
X012508Y078669D03*
X012508Y079169D03*
X012508Y079669D03*
X012508Y080169D03*
X012508Y080669D03*
X016368Y080669D03*
X016368Y080169D03*
X016368Y079669D03*
X016368Y079169D03*
X016368Y078669D03*
X016368Y078169D03*
X016368Y077669D03*
X016368Y077169D03*
X016368Y076669D03*
D12*
X009733Y080756D03*
X009064Y080756D03*
X009064Y082212D03*
X009733Y082212D03*
X037568Y084141D03*
X038237Y084141D03*
X038512Y085165D03*
X037843Y085165D03*
D13*
X014516Y069791D03*
X014516Y069122D03*
X013453Y069122D03*
X013453Y069791D03*
D14*
X016524Y055608D03*
X016524Y056297D03*
X015776Y068403D03*
X015776Y069092D03*
X030658Y074506D03*
X030658Y075195D03*
D15*
X030412Y058315D03*
X029723Y058315D03*
M02*
