%
M48
M72
T01C0.0197
T02C0.0236
T03C0.0276
T04C0.0320
T05C0.0400
T06C0.0472
T07C0.0630
T08C0.1260
%
T01
X11760Y52606
X13936Y55982
X14438Y56267
X14936Y55978
X15422Y56307
X16485Y54574
X16485Y52606
X14123Y52606
X13436Y56277
X13936Y60017
X14436Y60399
X14936Y60073
X15438Y60370
X15934Y60086
X15816Y61858
X15501Y62370
X15264Y62882
X15501Y63354
X15264Y63866
X15501Y64378
X15264Y64850
X15501Y65362
X15697Y66385
X14516Y67173
X14461Y70756
X14949Y71031
X13965Y71031
X13453Y70756
X11367Y68748
X10186Y68748
X10186Y67567
X10186Y66779
X10186Y65992
X10186Y65204
X9320Y64417
X9320Y63433
X7036Y69141
X7430Y70323
X7036Y71504
X12548Y60874
X13436Y60399
X17036Y57094
X19241Y57724
X19438Y61582
X19438Y62409
X21487Y65954
X21692Y66454
X21485Y66976
X20894Y67015
X21695Y65454
X23650Y65401
X24402Y68712
X25095Y68712
X25686Y67531
X25796Y66960
X25451Y66454
X25816Y65952
X25457Y65448
X25816Y64929
X25568Y63948
X26997Y64929
X27508Y69535
X27154Y72370
X27154Y73866
X25611Y72429
X25138Y72193
X24627Y72429
X24115Y72193
X23603Y72429
X23091Y72193
X22619Y72429
X22107Y72193
X21595Y71838
X22981Y69889
X23571Y69889
X23768Y74023
X25934Y77803
X26327Y79378
X25540Y80952
X24753Y78984
X27115Y81740
X27839Y84114
X27942Y85047
X29489Y81511
X31851Y81826
X31957Y80795
X32347Y80346
X32071Y79834
X32308Y79362
X32071Y78850
X32308Y78378
X32071Y77866
X32308Y77354
X32064Y76830
X32764Y75279
X32272Y74968
X33280Y74976
X33768Y75283
X34201Y73078
X33768Y71267
X33272Y71071
X32770Y71281
X32272Y71031
X31445Y69141
X30776Y68437
X30776Y70441
X32627Y73078
X33414Y70448
X33768Y69811
X35107Y68275
X35619Y68551
X36091Y68826
X35619Y67685
X34989Y66385
X34989Y65204
X34595Y67921
X33020Y67173
X32233Y66385
X33020Y64811
X32005Y63988
X32280Y63476
X32005Y62964
X32280Y62492
X32044Y61980
X32280Y61468
X32044Y60996
X32666Y59299
X32178Y58988
X33158Y58984
X33650Y59299
X33162Y55224
X33660Y54978
X32660Y54974
X32154Y55244
X31445Y54181
X31221Y52370
X33583Y52370
X34595Y54181
X30579Y59889
X31682Y64535
X36564Y65204
X36564Y66779
X37745Y65992
X39398Y67212
X39398Y68315
X39713Y69929
X39713Y70716
X39713Y72685
X39713Y73866
X41682Y70716
X42469Y71504
X42469Y69535
X37587Y81307
X37154Y81622
X36721Y81937
X36288Y82252
X39044Y84141
X39438Y85165
X33032Y81826
X31434Y75649
X25331Y59480
X28296Y54181
X28296Y52606
X19477Y72134
X19008Y72500
X20973Y75362
X21091Y77448
X16879Y75283
X16524Y75716
X15186Y77645
X14949Y77134
X14949Y78157
X15186Y78669
X14949Y79181
X15186Y79653
X14938Y80161
X14461Y75011
X14949Y74732
X13965Y74732
X13453Y75008
X19871Y85637
X20737Y85519
T02
X8178Y51346
X8571Y52134
X8965Y51346
X12508Y55519
X16642Y61267
X18178Y60519
X18886Y60008
X20068Y61937
X20068Y63354
X18886Y63118
X17666Y63354
X18178Y65441
X18886Y65204
X19831Y68118
X22351Y63984
X21603Y63433
X23138Y62921
X23138Y64968
X23052Y68307
X23650Y68826
X26170Y73393
X26170Y75323
X25776Y76346
X25264Y75874
X26288Y76819
X28217Y78354
X28690Y77842
X28729Y78905
X29989Y80244
X30383Y81346
X28611Y81700
X28060Y81307
X29005Y86228
X29005Y87645
X29005Y89141
X23257Y81622
X22587Y81110
X20422Y79929
X19871Y80362
X19320Y80795
X18453Y80362
X17666Y80952
X17390Y78078
X18375Y77527
X17863Y77015
X18926Y78078
X19320Y83000
X19871Y83385
X20422Y83787
X18493Y86307
X18729Y88826
X15776Y83118
X13257Y80795
X13375Y79378
X10579Y81346
X9438Y83118
X8571Y81819
X8532Y80756
X13335Y87252
X16367Y76228
X15449Y70232
X16445Y67527
X16879Y66464
X13453Y68590
X12705Y66425
X11091Y66425
X11020Y69511
X20619Y59378
X21091Y57842
X21249Y58433
X22115Y60992
X23138Y59023
X24753Y58590
X26524Y56173
X26760Y57173
X26760Y58590
X28532Y60008
X27981Y61464
X27444Y61990
X29438Y63511
X29398Y65008
X27627Y68551
X26839Y68945
X28217Y70795
X28690Y71267
X29398Y72252
X31288Y72685
X31760Y72960
X31603Y73551
X37036Y84141
X37272Y85086
X39674Y87567
X39713Y89220
X37627Y89260
X37508Y75244
X39438Y71464
X38808Y70165
X37508Y70165
X37194Y68000
X31642Y59299
X30776Y55874
X31642Y55008
X28532Y56622
X27444Y55100
X27981Y54811
X21131Y54299
X35934Y55519
X38886Y52134
X38886Y51346
X39674Y51740
T03
X37430Y54141
X17627Y53551
T04
X9300Y54421
X9300Y55421
X9300Y56421
X9300Y57421
X9300Y58421
X9300Y59421
X9300Y60421
X9300Y61421
X9300Y62421
X9264Y71744
X9264Y72744
X9264Y73744
X9264Y74744
X9264Y75744
X9264Y76744
X9264Y77744
X9264Y78744
X9264Y79744
X39091Y80137
X39091Y79137
X39091Y78137
X39091Y77137
X39091Y76137
X39091Y75137
X39091Y81137
X39091Y82137
X39091Y83137
X39150Y65815
X39150Y64815
X39150Y63815
X39150Y62815
X39150Y61815
X39150Y60815
X39150Y59815
X39150Y58815
X39150Y57815
T05
X41363Y57807
X41363Y56807
X41363Y55807
X42363Y55807
X42363Y56807
X42363Y57807
X42363Y58807
X42363Y59807
X42363Y60807
X42363Y61807
X42363Y62807
X42363Y63807
X42363Y64807
X42363Y65807
X42363Y66807
X42363Y67807
X41363Y67807
X41363Y66807
X41363Y65807
X41363Y64807
X41363Y63807
X41363Y62807
X41363Y61807
X41363Y60807
X41363Y59807
X41363Y58807
X41371Y73141
X41371Y74141
X41371Y75141
X41371Y76141
X42371Y76141
X42371Y75141
X42371Y74141
X42371Y73141
X42371Y77141
X42371Y78141
X42371Y79141
X42371Y80141
X42371Y81141
X42371Y82141
X42371Y83141
X42371Y84141
X42371Y85141
X41371Y85141
X41371Y84141
X41371Y83141
X41371Y82141
X41371Y81141
X41371Y80141
X41371Y79141
X41371Y78141
X41371Y77141
X25650Y84271
X25650Y85271
X24650Y85271
X24650Y84271
X23650Y84271
X23650Y85271
X22650Y85271
X22650Y84271
X21650Y84271
X21650Y85271
X22138Y56964
X21138Y56964
X21138Y55964
X22138Y55964
X23138Y55964
X23138Y56964
X24138Y56964
X24138Y55964
X25138Y55964
X25138Y56964
X7079Y57425
X7079Y58425
X7079Y59425
X7079Y60425
X7079Y61425
X7079Y62425
X7079Y63425
X7079Y64425
X7079Y65425
X7079Y66425
X7079Y67425
X6079Y67425
X6079Y66425
X6079Y65425
X6079Y64425
X6079Y63425
X6079Y62425
X6079Y61425
X6079Y60425
X6079Y59425
X6079Y58425
X6079Y57425
X6079Y56425
X6079Y55425
X7079Y55425
X7079Y56425
X7099Y72748
X7099Y73748
X7099Y74748
X7099Y75748
X7099Y76748
X7099Y77748
X7099Y78748
X7099Y79748
X7099Y80748
X7099Y81748
X7099Y82748
X7099Y83748
X7099Y84748
X6099Y84748
X6099Y83748
X6099Y82748
X6099Y81748
X6099Y80748
X6099Y79748
X6099Y78748
X6099Y77748
X6099Y76748
X6099Y75748
X6099Y74748
X6099Y73748
X6099Y72748
T06
X9595Y84260
X9595Y85244
X9595Y88472
X9595Y89456
X16879Y89456
X16879Y88472
X16879Y85244
X16879Y84260
T07
X20658Y87665
X22658Y87665
X24666Y87665
X26662Y87653
X26119Y53216
X24119Y53216
X22111Y53216
X20115Y53228
T08
X6249Y51819
X6249Y88826
X42075Y88826
X42075Y51819
M30
